%TF.GenerationSoftware,KiCad,Pcbnew,8.0.4*%
%TF.CreationDate,2024-09-29T18:22:28-03:00*%
%TF.ProjectId,pim,70696d2e-6b69-4636-9164-5f7063625858,rev?*%
%TF.SameCoordinates,Original*%
%TF.FileFunction,Legend,Top*%
%TF.FilePolarity,Positive*%
%FSLAX46Y46*%
G04 Gerber Fmt 4.6, Leading zero omitted, Abs format (unit mm)*
G04 Created by KiCad (PCBNEW 8.0.4) date 2024-09-29 18:22:28*
%MOMM*%
%LPD*%
G01*
G04 APERTURE LIST*
%ADD10C,0.150000*%
%ADD11C,0.120000*%
G04 APERTURE END LIST*
D10*
X35666666Y-74254819D02*
X35333333Y-73778628D01*
X35095238Y-74254819D02*
X35095238Y-73254819D01*
X35095238Y-73254819D02*
X35476190Y-73254819D01*
X35476190Y-73254819D02*
X35571428Y-73302438D01*
X35571428Y-73302438D02*
X35619047Y-73350057D01*
X35619047Y-73350057D02*
X35666666Y-73445295D01*
X35666666Y-73445295D02*
X35666666Y-73588152D01*
X35666666Y-73588152D02*
X35619047Y-73683390D01*
X35619047Y-73683390D02*
X35571428Y-73731009D01*
X35571428Y-73731009D02*
X35476190Y-73778628D01*
X35476190Y-73778628D02*
X35095238Y-73778628D01*
X36095238Y-73731009D02*
X36428571Y-73731009D01*
X36571428Y-74254819D02*
X36095238Y-74254819D01*
X36095238Y-74254819D02*
X36095238Y-73254819D01*
X36095238Y-73254819D02*
X36571428Y-73254819D01*
X37333333Y-73731009D02*
X37000000Y-73731009D01*
X37000000Y-74254819D02*
X37000000Y-73254819D01*
X37000000Y-73254819D02*
X37476190Y-73254819D01*
X38000000Y-73254819D02*
X38000000Y-73492914D01*
X37761905Y-73397676D02*
X38000000Y-73492914D01*
X38000000Y-73492914D02*
X38238095Y-73397676D01*
X37857143Y-73683390D02*
X38000000Y-73492914D01*
X38000000Y-73492914D02*
X38142857Y-73683390D01*
X38761905Y-73254819D02*
X38761905Y-73492914D01*
X38523810Y-73397676D02*
X38761905Y-73492914D01*
X38761905Y-73492914D02*
X39000000Y-73397676D01*
X38619048Y-73683390D02*
X38761905Y-73492914D01*
X38761905Y-73492914D02*
X38904762Y-73683390D01*
X112666666Y-15154819D02*
X112333333Y-14678628D01*
X112095238Y-15154819D02*
X112095238Y-14154819D01*
X112095238Y-14154819D02*
X112476190Y-14154819D01*
X112476190Y-14154819D02*
X112571428Y-14202438D01*
X112571428Y-14202438D02*
X112619047Y-14250057D01*
X112619047Y-14250057D02*
X112666666Y-14345295D01*
X112666666Y-14345295D02*
X112666666Y-14488152D01*
X112666666Y-14488152D02*
X112619047Y-14583390D01*
X112619047Y-14583390D02*
X112571428Y-14631009D01*
X112571428Y-14631009D02*
X112476190Y-14678628D01*
X112476190Y-14678628D02*
X112095238Y-14678628D01*
X113095238Y-14631009D02*
X113428571Y-14631009D01*
X113571428Y-15154819D02*
X113095238Y-15154819D01*
X113095238Y-15154819D02*
X113095238Y-14154819D01*
X113095238Y-14154819D02*
X113571428Y-14154819D01*
X114333333Y-14631009D02*
X114000000Y-14631009D01*
X114000000Y-15154819D02*
X114000000Y-14154819D01*
X114000000Y-14154819D02*
X114476190Y-14154819D01*
X115000000Y-14154819D02*
X115000000Y-14392914D01*
X114761905Y-14297676D02*
X115000000Y-14392914D01*
X115000000Y-14392914D02*
X115238095Y-14297676D01*
X114857143Y-14583390D02*
X115000000Y-14392914D01*
X115000000Y-14392914D02*
X115142857Y-14583390D01*
X115761905Y-14154819D02*
X115761905Y-14392914D01*
X115523810Y-14297676D02*
X115761905Y-14392914D01*
X115761905Y-14392914D02*
X116000000Y-14297676D01*
X115619048Y-14583390D02*
X115761905Y-14392914D01*
X115761905Y-14392914D02*
X115904762Y-14583390D01*
X114298819Y-49355333D02*
X115013104Y-49355333D01*
X115013104Y-49355333D02*
X115155961Y-49402952D01*
X115155961Y-49402952D02*
X115251200Y-49498190D01*
X115251200Y-49498190D02*
X115298819Y-49641047D01*
X115298819Y-49641047D02*
X115298819Y-49736285D01*
X114298819Y-48402952D02*
X114298819Y-48879142D01*
X114298819Y-48879142D02*
X114775009Y-48926761D01*
X114775009Y-48926761D02*
X114727390Y-48879142D01*
X114727390Y-48879142D02*
X114679771Y-48783904D01*
X114679771Y-48783904D02*
X114679771Y-48545809D01*
X114679771Y-48545809D02*
X114727390Y-48450571D01*
X114727390Y-48450571D02*
X114775009Y-48402952D01*
X114775009Y-48402952D02*
X114870247Y-48355333D01*
X114870247Y-48355333D02*
X115108342Y-48355333D01*
X115108342Y-48355333D02*
X115203580Y-48402952D01*
X115203580Y-48402952D02*
X115251200Y-48450571D01*
X115251200Y-48450571D02*
X115298819Y-48545809D01*
X115298819Y-48545809D02*
X115298819Y-48783904D01*
X115298819Y-48783904D02*
X115251200Y-48879142D01*
X115251200Y-48879142D02*
X115203580Y-48926761D01*
X32428984Y-31673498D02*
X33143269Y-31673498D01*
X33143269Y-31673498D02*
X33286126Y-31721117D01*
X33286126Y-31721117D02*
X33381365Y-31816355D01*
X33381365Y-31816355D02*
X33428984Y-31959212D01*
X33428984Y-31959212D02*
X33428984Y-32054450D01*
X33428984Y-30673498D02*
X33428984Y-31244926D01*
X33428984Y-30959212D02*
X32428984Y-30959212D01*
X32428984Y-30959212D02*
X32571841Y-31054450D01*
X32571841Y-31054450D02*
X32667079Y-31149688D01*
X32667079Y-31149688D02*
X32714698Y-31244926D01*
X32428984Y-63823333D02*
X33143269Y-63823333D01*
X33143269Y-63823333D02*
X33286126Y-63870952D01*
X33286126Y-63870952D02*
X33381365Y-63966190D01*
X33381365Y-63966190D02*
X33428984Y-64109047D01*
X33428984Y-64109047D02*
X33428984Y-64204285D01*
X32524222Y-63394761D02*
X32476603Y-63347142D01*
X32476603Y-63347142D02*
X32428984Y-63251904D01*
X32428984Y-63251904D02*
X32428984Y-63013809D01*
X32428984Y-63013809D02*
X32476603Y-62918571D01*
X32476603Y-62918571D02*
X32524222Y-62870952D01*
X32524222Y-62870952D02*
X32619460Y-62823333D01*
X32619460Y-62823333D02*
X32714698Y-62823333D01*
X32714698Y-62823333D02*
X32857555Y-62870952D01*
X32857555Y-62870952D02*
X33428984Y-63442380D01*
X33428984Y-63442380D02*
X33428984Y-62823333D01*
X35866666Y-15254819D02*
X35533333Y-14778628D01*
X35295238Y-15254819D02*
X35295238Y-14254819D01*
X35295238Y-14254819D02*
X35676190Y-14254819D01*
X35676190Y-14254819D02*
X35771428Y-14302438D01*
X35771428Y-14302438D02*
X35819047Y-14350057D01*
X35819047Y-14350057D02*
X35866666Y-14445295D01*
X35866666Y-14445295D02*
X35866666Y-14588152D01*
X35866666Y-14588152D02*
X35819047Y-14683390D01*
X35819047Y-14683390D02*
X35771428Y-14731009D01*
X35771428Y-14731009D02*
X35676190Y-14778628D01*
X35676190Y-14778628D02*
X35295238Y-14778628D01*
X36295238Y-14731009D02*
X36628571Y-14731009D01*
X36771428Y-15254819D02*
X36295238Y-15254819D01*
X36295238Y-15254819D02*
X36295238Y-14254819D01*
X36295238Y-14254819D02*
X36771428Y-14254819D01*
X37533333Y-14731009D02*
X37200000Y-14731009D01*
X37200000Y-15254819D02*
X37200000Y-14254819D01*
X37200000Y-14254819D02*
X37676190Y-14254819D01*
X38200000Y-14254819D02*
X38200000Y-14492914D01*
X37961905Y-14397676D02*
X38200000Y-14492914D01*
X38200000Y-14492914D02*
X38438095Y-14397676D01*
X38057143Y-14683390D02*
X38200000Y-14492914D01*
X38200000Y-14492914D02*
X38342857Y-14683390D01*
X38961905Y-14254819D02*
X38961905Y-14492914D01*
X38723810Y-14397676D02*
X38961905Y-14492914D01*
X38961905Y-14492914D02*
X39200000Y-14397676D01*
X38819048Y-14683390D02*
X38961905Y-14492914D01*
X38961905Y-14492914D02*
X39104762Y-14683390D01*
X49450666Y-74169819D02*
X49450666Y-74884104D01*
X49450666Y-74884104D02*
X49403047Y-75026961D01*
X49403047Y-75026961D02*
X49307809Y-75122200D01*
X49307809Y-75122200D02*
X49164952Y-75169819D01*
X49164952Y-75169819D02*
X49069714Y-75169819D01*
X49831619Y-74169819D02*
X50450666Y-74169819D01*
X50450666Y-74169819D02*
X50117333Y-74550771D01*
X50117333Y-74550771D02*
X50260190Y-74550771D01*
X50260190Y-74550771D02*
X50355428Y-74598390D01*
X50355428Y-74598390D02*
X50403047Y-74646009D01*
X50403047Y-74646009D02*
X50450666Y-74741247D01*
X50450666Y-74741247D02*
X50450666Y-74979342D01*
X50450666Y-74979342D02*
X50403047Y-75074580D01*
X50403047Y-75074580D02*
X50355428Y-75122200D01*
X50355428Y-75122200D02*
X50260190Y-75169819D01*
X50260190Y-75169819D02*
X49974476Y-75169819D01*
X49974476Y-75169819D02*
X49879238Y-75122200D01*
X49879238Y-75122200D02*
X49831619Y-75074580D01*
X97877333Y-55684819D02*
X97544000Y-55208628D01*
X97305905Y-55684819D02*
X97305905Y-54684819D01*
X97305905Y-54684819D02*
X97686857Y-54684819D01*
X97686857Y-54684819D02*
X97782095Y-54732438D01*
X97782095Y-54732438D02*
X97829714Y-54780057D01*
X97829714Y-54780057D02*
X97877333Y-54875295D01*
X97877333Y-54875295D02*
X97877333Y-55018152D01*
X97877333Y-55018152D02*
X97829714Y-55113390D01*
X97829714Y-55113390D02*
X97782095Y-55161009D01*
X97782095Y-55161009D02*
X97686857Y-55208628D01*
X97686857Y-55208628D02*
X97305905Y-55208628D01*
X98829714Y-55684819D02*
X98258286Y-55684819D01*
X98544000Y-55684819D02*
X98544000Y-54684819D01*
X98544000Y-54684819D02*
X98448762Y-54827676D01*
X98448762Y-54827676D02*
X98353524Y-54922914D01*
X98353524Y-54922914D02*
X98258286Y-54970533D01*
X114298819Y-34369333D02*
X115013104Y-34369333D01*
X115013104Y-34369333D02*
X115155961Y-34416952D01*
X115155961Y-34416952D02*
X115251200Y-34512190D01*
X115251200Y-34512190D02*
X115298819Y-34655047D01*
X115298819Y-34655047D02*
X115298819Y-34750285D01*
X114632152Y-33464571D02*
X115298819Y-33464571D01*
X114251200Y-33702666D02*
X114965485Y-33940761D01*
X114965485Y-33940761D02*
X114965485Y-33321714D01*
X112666666Y-74254819D02*
X112333333Y-73778628D01*
X112095238Y-74254819D02*
X112095238Y-73254819D01*
X112095238Y-73254819D02*
X112476190Y-73254819D01*
X112476190Y-73254819D02*
X112571428Y-73302438D01*
X112571428Y-73302438D02*
X112619047Y-73350057D01*
X112619047Y-73350057D02*
X112666666Y-73445295D01*
X112666666Y-73445295D02*
X112666666Y-73588152D01*
X112666666Y-73588152D02*
X112619047Y-73683390D01*
X112619047Y-73683390D02*
X112571428Y-73731009D01*
X112571428Y-73731009D02*
X112476190Y-73778628D01*
X112476190Y-73778628D02*
X112095238Y-73778628D01*
X113095238Y-73731009D02*
X113428571Y-73731009D01*
X113571428Y-74254819D02*
X113095238Y-74254819D01*
X113095238Y-74254819D02*
X113095238Y-73254819D01*
X113095238Y-73254819D02*
X113571428Y-73254819D01*
X114333333Y-73731009D02*
X114000000Y-73731009D01*
X114000000Y-74254819D02*
X114000000Y-73254819D01*
X114000000Y-73254819D02*
X114476190Y-73254819D01*
X115000000Y-73254819D02*
X115000000Y-73492914D01*
X114761905Y-73397676D02*
X115000000Y-73492914D01*
X115000000Y-73492914D02*
X115238095Y-73397676D01*
X114857143Y-73683390D02*
X115000000Y-73492914D01*
X115000000Y-73492914D02*
X115142857Y-73683390D01*
X115761905Y-73254819D02*
X115761905Y-73492914D01*
X115523810Y-73397676D02*
X115761905Y-73492914D01*
X115761905Y-73492914D02*
X116000000Y-73397676D01*
X115619048Y-73683390D02*
X115761905Y-73492914D01*
X115761905Y-73492914D02*
X115904762Y-73683390D01*
X97877333Y-51000819D02*
X97544000Y-50524628D01*
X97305905Y-51000819D02*
X97305905Y-50000819D01*
X97305905Y-50000819D02*
X97686857Y-50000819D01*
X97686857Y-50000819D02*
X97782095Y-50048438D01*
X97782095Y-50048438D02*
X97829714Y-50096057D01*
X97829714Y-50096057D02*
X97877333Y-50191295D01*
X97877333Y-50191295D02*
X97877333Y-50334152D01*
X97877333Y-50334152D02*
X97829714Y-50429390D01*
X97829714Y-50429390D02*
X97782095Y-50477009D01*
X97782095Y-50477009D02*
X97686857Y-50524628D01*
X97686857Y-50524628D02*
X97305905Y-50524628D01*
X98258286Y-50096057D02*
X98305905Y-50048438D01*
X98305905Y-50048438D02*
X98401143Y-50000819D01*
X98401143Y-50000819D02*
X98639238Y-50000819D01*
X98639238Y-50000819D02*
X98734476Y-50048438D01*
X98734476Y-50048438D02*
X98782095Y-50096057D01*
X98782095Y-50096057D02*
X98829714Y-50191295D01*
X98829714Y-50191295D02*
X98829714Y-50286533D01*
X98829714Y-50286533D02*
X98782095Y-50429390D01*
X98782095Y-50429390D02*
X98210667Y-51000819D01*
X98210667Y-51000819D02*
X98829714Y-51000819D01*
X97877333Y-46174819D02*
X97544000Y-45698628D01*
X97305905Y-46174819D02*
X97305905Y-45174819D01*
X97305905Y-45174819D02*
X97686857Y-45174819D01*
X97686857Y-45174819D02*
X97782095Y-45222438D01*
X97782095Y-45222438D02*
X97829714Y-45270057D01*
X97829714Y-45270057D02*
X97877333Y-45365295D01*
X97877333Y-45365295D02*
X97877333Y-45508152D01*
X97877333Y-45508152D02*
X97829714Y-45603390D01*
X97829714Y-45603390D02*
X97782095Y-45651009D01*
X97782095Y-45651009D02*
X97686857Y-45698628D01*
X97686857Y-45698628D02*
X97305905Y-45698628D01*
X98210667Y-45174819D02*
X98829714Y-45174819D01*
X98829714Y-45174819D02*
X98496381Y-45555771D01*
X98496381Y-45555771D02*
X98639238Y-45555771D01*
X98639238Y-45555771D02*
X98734476Y-45603390D01*
X98734476Y-45603390D02*
X98782095Y-45651009D01*
X98782095Y-45651009D02*
X98829714Y-45746247D01*
X98829714Y-45746247D02*
X98829714Y-45984342D01*
X98829714Y-45984342D02*
X98782095Y-46079580D01*
X98782095Y-46079580D02*
X98734476Y-46127200D01*
X98734476Y-46127200D02*
X98639238Y-46174819D01*
X98639238Y-46174819D02*
X98353524Y-46174819D01*
X98353524Y-46174819D02*
X98258286Y-46127200D01*
X98258286Y-46127200D02*
X98210667Y-46079580D01*
X164866666Y-30254819D02*
X164533333Y-29778628D01*
X164295238Y-30254819D02*
X164295238Y-29254819D01*
X164295238Y-29254819D02*
X164676190Y-29254819D01*
X164676190Y-29254819D02*
X164771428Y-29302438D01*
X164771428Y-29302438D02*
X164819047Y-29350057D01*
X164819047Y-29350057D02*
X164866666Y-29445295D01*
X164866666Y-29445295D02*
X164866666Y-29588152D01*
X164866666Y-29588152D02*
X164819047Y-29683390D01*
X164819047Y-29683390D02*
X164771428Y-29731009D01*
X164771428Y-29731009D02*
X164676190Y-29778628D01*
X164676190Y-29778628D02*
X164295238Y-29778628D01*
X165295238Y-29731009D02*
X165628571Y-29731009D01*
X165771428Y-30254819D02*
X165295238Y-30254819D01*
X165295238Y-30254819D02*
X165295238Y-29254819D01*
X165295238Y-29254819D02*
X165771428Y-29254819D01*
X166533333Y-29731009D02*
X166200000Y-29731009D01*
X166200000Y-30254819D02*
X166200000Y-29254819D01*
X166200000Y-29254819D02*
X166676190Y-29254819D01*
X167200000Y-29254819D02*
X167200000Y-29492914D01*
X166961905Y-29397676D02*
X167200000Y-29492914D01*
X167200000Y-29492914D02*
X167438095Y-29397676D01*
X167057143Y-29683390D02*
X167200000Y-29492914D01*
X167200000Y-29492914D02*
X167342857Y-29683390D01*
X167961905Y-29254819D02*
X167961905Y-29492914D01*
X167723810Y-29397676D02*
X167961905Y-29492914D01*
X167961905Y-29492914D02*
X168200000Y-29397676D01*
X167819048Y-29683390D02*
X167961905Y-29492914D01*
X167961905Y-29492914D02*
X168104762Y-29683390D01*
D11*
%TO.C,J5*%
X107734000Y-43832000D02*
X107734000Y-54212000D01*
X107734000Y-45212000D02*
X108734000Y-45212000D01*
X107734000Y-45462000D02*
X108734000Y-45462000D01*
X107734000Y-52582000D02*
X108734000Y-52582000D01*
X107734000Y-54212000D02*
X113754000Y-54212000D01*
X108734000Y-45212000D02*
X108734000Y-52832000D01*
X108734000Y-45212000D02*
X109264000Y-45462000D01*
X108734000Y-52832000D02*
X107734000Y-52832000D01*
X109264000Y-45462000D02*
X109264000Y-52582000D01*
X109264000Y-52582000D02*
X108734000Y-52832000D01*
X112724000Y-43542000D02*
X108724000Y-43542000D01*
X113154000Y-44412000D02*
X113154000Y-46012000D01*
X113154000Y-46012000D02*
X113754000Y-46012000D01*
X113154000Y-46952000D02*
X113154000Y-48552000D01*
X113154000Y-48552000D02*
X113754000Y-48552000D01*
X113154000Y-49492000D02*
X113154000Y-51092000D01*
X113154000Y-51092000D02*
X113754000Y-51092000D01*
X113154000Y-52032000D02*
X113154000Y-53632000D01*
X113154000Y-53632000D02*
X113754000Y-53632000D01*
X113754000Y-43832000D02*
X107734000Y-43832000D01*
X113754000Y-44412000D02*
X113154000Y-44412000D01*
X113754000Y-46952000D02*
X113154000Y-46952000D01*
X113754000Y-49492000D02*
X113154000Y-49492000D01*
X113754000Y-52032000D02*
X113154000Y-52032000D01*
X113754000Y-54212000D02*
X113754000Y-43832000D01*
%TO.C,J1*%
X21554165Y-15855165D02*
X32034165Y-15855165D01*
X32034165Y-15855165D02*
X32034165Y-46825165D01*
X32034165Y-46825165D02*
X21554165Y-46825165D01*
X32495490Y-25800165D02*
X32928503Y-25550165D01*
X32928503Y-25550165D02*
X32928503Y-26050165D01*
X32928503Y-26050165D02*
X32495490Y-25800165D01*
%TO.C,J2*%
X21554165Y-48005000D02*
X32034165Y-48005000D01*
X32034165Y-48005000D02*
X32034165Y-78975000D01*
X32034165Y-78975000D02*
X21554165Y-78975000D01*
X32495490Y-57950000D02*
X32928503Y-57700000D01*
X32928503Y-57700000D02*
X32928503Y-58200000D01*
X32928503Y-58200000D02*
X32495490Y-57950000D01*
%TO.C,J3*%
X48454000Y-71115000D02*
X48454000Y-22795000D01*
X51114000Y-22795000D02*
X48454000Y-22795000D01*
X51114000Y-71115000D02*
X48454000Y-71115000D01*
X51114000Y-71115000D02*
X51114000Y-22795000D01*
X51114000Y-72385000D02*
X51114000Y-73715000D01*
X51114000Y-73715000D02*
X49784000Y-73715000D01*
%TO.C,R1*%
X95174000Y-57150000D02*
X96124000Y-57150000D01*
X96124000Y-56230000D02*
X96124000Y-58070000D01*
X96124000Y-58070000D02*
X99964000Y-58070000D01*
X99964000Y-56230000D02*
X96124000Y-56230000D01*
X99964000Y-58070000D02*
X99964000Y-56230000D01*
X100914000Y-57150000D02*
X99964000Y-57150000D01*
%TO.C,J4*%
X107734000Y-30116000D02*
X107734000Y-37956000D01*
X107734000Y-31496000D02*
X108734000Y-31496000D01*
X107734000Y-31746000D02*
X108734000Y-31746000D01*
X107734000Y-36326000D02*
X108734000Y-36326000D01*
X107734000Y-37956000D02*
X113754000Y-37956000D01*
X108734000Y-31496000D02*
X108734000Y-36576000D01*
X108734000Y-31496000D02*
X109264000Y-31746000D01*
X108734000Y-36576000D02*
X107734000Y-36576000D01*
X109264000Y-31746000D02*
X109264000Y-36326000D01*
X109264000Y-36326000D02*
X108734000Y-36576000D01*
X112724000Y-29826000D02*
X108724000Y-29826000D01*
X113154000Y-30696000D02*
X113154000Y-32296000D01*
X113154000Y-32296000D02*
X113754000Y-32296000D01*
X113154000Y-33236000D02*
X113154000Y-34836000D01*
X113154000Y-34836000D02*
X113754000Y-34836000D01*
X113154000Y-35776000D02*
X113154000Y-37376000D01*
X113154000Y-37376000D02*
X113754000Y-37376000D01*
X113754000Y-30116000D02*
X107734000Y-30116000D01*
X113754000Y-30696000D02*
X113154000Y-30696000D01*
X113754000Y-33236000D02*
X113154000Y-33236000D01*
X113754000Y-35776000D02*
X113154000Y-35776000D01*
X113754000Y-37956000D02*
X113754000Y-30116000D01*
%TO.C,R2*%
X95174000Y-52324000D02*
X96124000Y-52324000D01*
X96124000Y-51404000D02*
X96124000Y-53244000D01*
X96124000Y-53244000D02*
X99964000Y-53244000D01*
X99964000Y-51404000D02*
X96124000Y-51404000D01*
X99964000Y-53244000D02*
X99964000Y-51404000D01*
X100914000Y-52324000D02*
X99964000Y-52324000D01*
%TO.C,U1*%
X63304000Y-73158500D02*
X63304000Y-23158500D01*
X63644000Y-22611500D02*
X63644000Y-73705500D01*
X66404000Y-25854980D02*
X66404000Y-23462020D01*
X66404000Y-72854980D02*
X66404000Y-70462020D01*
X69679000Y-73768500D02*
X66404000Y-73768500D01*
X69804000Y-74248500D02*
X70014000Y-74248500D01*
X69804000Y-75168500D02*
X69804000Y-74248500D01*
X70014000Y-69248500D02*
X77814000Y-69248500D01*
X70014000Y-70464500D02*
X70014000Y-69248500D01*
X70014000Y-72852500D02*
X70014000Y-70464500D01*
X70014000Y-74248500D02*
X70014000Y-72852500D01*
X70314000Y-22548500D02*
X63914000Y-22548500D01*
X70314000Y-22548500D02*
X77514000Y-22548500D01*
X75160090Y-69248500D02*
X72667910Y-69248500D01*
X77814000Y-70464500D02*
X77814000Y-69248500D01*
X77814000Y-72852500D02*
X77814000Y-70464500D01*
X77814000Y-74248500D02*
X77814000Y-72852500D01*
X78024000Y-74248500D02*
X77814000Y-74248500D01*
X78024000Y-75168500D02*
X69804000Y-75168500D01*
X78024000Y-75168500D02*
X78024000Y-74248500D01*
X78149000Y-73768500D02*
X69679000Y-73768500D01*
X81424000Y-25854980D02*
X81424000Y-23462020D01*
X81424000Y-72854980D02*
X81424000Y-70462020D01*
X81424000Y-73768500D02*
X78149000Y-73768500D01*
X83914000Y-22548500D02*
X77514000Y-22548500D01*
X84184000Y-73705500D02*
X84184000Y-22611500D01*
X84524000Y-73158500D02*
X84524000Y-23158500D01*
X84844000Y-71488500D02*
X84844000Y-73088500D01*
X63304000Y-23158500D02*
G75*
G02*
X63914000Y-22548500I610000J0D01*
G01*
X63914000Y-73768500D02*
G75*
G02*
X63304000Y-73158500I0J610000D01*
G01*
X83914000Y-22548500D02*
G75*
G02*
X84524000Y-23158500I99J-609901D01*
G01*
X84524000Y-73158500D02*
G75*
G02*
X83914000Y-73768500I-610000J0D01*
G01*
X69154000Y-24658500D02*
G75*
G02*
X67274000Y-24658500I-940000J0D01*
G01*
X67274000Y-24658500D02*
G75*
G02*
X69154000Y-24658500I940000J0D01*
G01*
X69154000Y-71658500D02*
G75*
G02*
X67274000Y-71658500I-940000J0D01*
G01*
X67274000Y-71658500D02*
G75*
G02*
X69154000Y-71658500I940000J0D01*
G01*
X80554000Y-24658500D02*
G75*
G02*
X78674000Y-24658500I-940000J0D01*
G01*
X78674000Y-24658500D02*
G75*
G02*
X80554000Y-24658500I940000J0D01*
G01*
X80554000Y-71658500D02*
G75*
G02*
X78674000Y-71658500I-940000J0D01*
G01*
X78674000Y-71658500D02*
G75*
G02*
X80554000Y-71658500I940000J0D01*
G01*
%TO.C,R3*%
X95174000Y-47752000D02*
X96124000Y-47752000D01*
X96124000Y-46832000D02*
X96124000Y-48672000D01*
X96124000Y-48672000D02*
X99964000Y-48672000D01*
X99964000Y-46832000D02*
X96124000Y-46832000D01*
X99964000Y-48672000D02*
X99964000Y-46832000D01*
X100914000Y-47752000D02*
X99964000Y-47752000D01*
%TD*%
M02*
