%TF.GenerationSoftware,KiCad,Pcbnew,8.0.4*%
%TF.CreationDate,2024-09-29T18:22:28-03:00*%
%TF.ProjectId,pim,70696d2e-6b69-4636-9164-5f7063625858,rev?*%
%TF.SameCoordinates,Original*%
%TF.FileFunction,Copper,L2,Bot*%
%TF.FilePolarity,Positive*%
%FSLAX46Y46*%
G04 Gerber Fmt 4.6, Leading zero omitted, Abs format (unit mm)*
G04 Created by KiCad (PCBNEW 8.0.4) date 2024-09-29 18:22:28*
%MOMM*%
%LPD*%
G01*
G04 APERTURE LIST*
G04 Aperture macros list*
%AMRoundRect*
0 Rectangle with rounded corners*
0 $1 Rounding radius*
0 $2 $3 $4 $5 $6 $7 $8 $9 X,Y pos of 4 corners*
0 Add a 4 corners polygon primitive as box body*
4,1,4,$2,$3,$4,$5,$6,$7,$8,$9,$2,$3,0*
0 Add four circle primitives for the rounded corners*
1,1,$1+$1,$2,$3*
1,1,$1+$1,$4,$5*
1,1,$1+$1,$6,$7*
1,1,$1+$1,$8,$9*
0 Add four rect primitives between the rounded corners*
20,1,$1+$1,$2,$3,$4,$5,0*
20,1,$1+$1,$4,$5,$6,$7,0*
20,1,$1+$1,$6,$7,$8,$9,0*
20,1,$1+$1,$8,$9,$2,$3,0*%
%AMFreePoly0*
4,1,28,0.178017,0.779942,0.347107,0.720775,0.498792,0.625465,0.625465,0.498792,0.720775,0.347107,0.779942,0.178017,0.800000,0.000000,0.779942,-0.178017,0.720775,-0.347107,0.625465,-0.498792,0.498792,-0.625465,0.347107,-0.720775,0.178017,-0.779942,0.000000,-0.800000,-0.600000,-0.800000,-0.605014,-0.794986,-0.644504,-0.794986,-0.724698,-0.756366,-0.780194,-0.686777,-0.800000,-0.600000,
-0.800000,0.600000,-0.780194,0.686777,-0.724698,0.756366,-0.644504,0.794986,-0.605014,0.794986,-0.600000,0.800000,0.000000,0.800000,0.178017,0.779942,0.178017,0.779942,$1*%
%AMFreePoly1*
4,1,28,0.605014,0.794986,0.644504,0.794986,0.724698,0.756366,0.780194,0.686777,0.800000,0.600000,0.800000,-0.600000,0.780194,-0.686777,0.724698,-0.756366,0.644504,-0.794986,0.605014,-0.794986,0.600000,-0.800000,0.000000,-0.800000,-0.178017,-0.779942,-0.347107,-0.720775,-0.498792,-0.625465,-0.625465,-0.498792,-0.720775,-0.347107,-0.779942,-0.178017,-0.800000,0.000000,-0.779942,0.178017,
-0.720775,0.347107,-0.625465,0.498792,-0.498792,0.625465,-0.347107,0.720775,-0.178017,0.779942,0.000000,0.800000,0.600000,0.800000,0.605014,0.794986,0.605014,0.794986,$1*%
G04 Aperture macros list end*
%TA.AperFunction,WasherPad*%
%ADD10C,2.100000*%
%TD*%
%TA.AperFunction,ComponentPad*%
%ADD11RoundRect,0.250000X-0.845000X0.620000X-0.845000X-0.620000X0.845000X-0.620000X0.845000X0.620000X0*%
%TD*%
%TA.AperFunction,ComponentPad*%
%ADD12O,2.190000X1.740000*%
%TD*%
%TA.AperFunction,ComponentPad*%
%ADD13C,4.000000*%
%TD*%
%TA.AperFunction,ComponentPad*%
%ADD14R,1.600000X1.600000*%
%TD*%
%TA.AperFunction,ComponentPad*%
%ADD15C,1.600000*%
%TD*%
%TA.AperFunction,ComponentPad*%
%ADD16R,1.700000X1.700000*%
%TD*%
%TA.AperFunction,ComponentPad*%
%ADD17O,1.700000X1.700000*%
%TD*%
%TA.AperFunction,ComponentPad*%
%ADD18C,1.400000*%
%TD*%
%TA.AperFunction,ComponentPad*%
%ADD19O,1.400000X1.400000*%
%TD*%
%TA.AperFunction,ComponentPad*%
%ADD20RoundRect,0.200000X0.600000X0.600000X-0.600000X0.600000X-0.600000X-0.600000X0.600000X-0.600000X0*%
%TD*%
%TA.AperFunction,ComponentPad*%
%ADD21FreePoly0,180.000000*%
%TD*%
%TA.AperFunction,ComponentPad*%
%ADD22FreePoly1,180.000000*%
%TD*%
%TA.AperFunction,ViaPad*%
%ADD23C,1.600000*%
%TD*%
%TA.AperFunction,Conductor*%
%ADD24C,0.800000*%
%TD*%
%TA.AperFunction,Conductor*%
%ADD25C,0.500000*%
%TD*%
G04 APERTURE END LIST*
D10*
%TO.P,REF\u002A\u002A,*%
%TO.N,*%
X37000000Y-77000000D03*
%TD*%
%TO.P,REF\u002A\u002A,*%
%TO.N,*%
X114000000Y-17900000D03*
%TD*%
D11*
%TO.P,J5,1,Pin_1*%
%TO.N,Net-(J5-Pin_1)*%
X110724000Y-45212000D03*
D12*
%TO.P,J5,2,Pin_2*%
%TO.N,Net-(J5-Pin_2)*%
X110724000Y-47752000D03*
%TO.P,J5,3,Pin_3*%
%TO.N,Net-(J5-Pin_3)*%
X110724000Y-50292000D03*
%TO.P,J5,4,Pin_4*%
%TO.N,Net-(J5-Pin_4)*%
X110724000Y-52832000D03*
%TD*%
D13*
%TO.P,J1,0*%
%TO.N,N/C*%
X28974165Y-18840165D03*
X28974165Y-43840165D03*
D14*
%TO.P,J1,1,1*%
%TO.N,/M-d*%
X29274165Y-25800165D03*
D15*
%TO.P,J1,2,2*%
%TO.N,/M-e*%
X29274165Y-28570165D03*
%TO.P,J1,3,3*%
%TO.N,/M-f*%
X29274165Y-31340165D03*
%TO.P,J1,4,4*%
%TO.N,/M-g*%
X29274165Y-34110165D03*
%TO.P,J1,5,5*%
%TO.N,unconnected-(J1-Pad5)*%
X29274165Y-36880165D03*
%TO.P,J1,6,6*%
%TO.N,/M-h*%
X26434165Y-27185165D03*
%TO.P,J1,7,7*%
%TO.N,unconnected-(J1-Pad7)*%
X26434165Y-29955165D03*
%TO.P,J1,8,8*%
%TO.N,/M-8*%
X26434165Y-32725165D03*
%TO.P,J1,9,9*%
%TO.N,unconnected-(J1-Pad9)*%
X26434165Y-35495165D03*
%TD*%
D13*
%TO.P,J2,0*%
%TO.N,N/C*%
X28974165Y-50990000D03*
X28974165Y-75990000D03*
D14*
%TO.P,J2,1,1*%
%TO.N,/M-0*%
X29274165Y-57950000D03*
D15*
%TO.P,J2,2,2*%
%TO.N,/M-1*%
X29274165Y-60720000D03*
%TO.P,J2,3,3*%
%TO.N,/M-2*%
X29274165Y-63490000D03*
%TO.P,J2,4,4*%
%TO.N,/M-3*%
X29274165Y-66260000D03*
%TO.P,J2,5,5*%
%TO.N,unconnected-(J2-Pad5)*%
X29274165Y-69030000D03*
%TO.P,J2,6,6*%
%TO.N,/M-4*%
X26434165Y-59335000D03*
%TO.P,J2,7,7*%
%TO.N,unconnected-(J2-Pad7)*%
X26434165Y-62105000D03*
%TO.P,J2,8,8*%
%TO.N,/M-i*%
X26434165Y-64875000D03*
%TO.P,J2,9,9*%
%TO.N,unconnected-(J2-Pad9)*%
X26434165Y-67645000D03*
%TD*%
D10*
%TO.P,REF\u002A\u002A,*%
%TO.N,*%
X37200000Y-18000000D03*
%TD*%
D16*
%TO.P,J3,1,Pin_1*%
%TO.N,/M-i*%
X49784000Y-72385000D03*
D17*
%TO.P,J3,2,Pin_2*%
%TO.N,unconnected-(J3-Pin_2-Pad2)*%
X49784000Y-69845000D03*
%TO.P,J3,3,Pin_3*%
%TO.N,/M-8*%
X49784000Y-67305000D03*
%TO.P,J3,4,Pin_4*%
%TO.N,unconnected-(J3-Pin_4-Pad4)*%
X49784000Y-64765000D03*
%TO.P,J3,5,Pin_5*%
%TO.N,/M-7*%
X49784000Y-62225000D03*
%TO.P,J3,6,Pin_6*%
%TO.N,/M-6*%
X49784000Y-59685000D03*
%TO.P,J3,7,Pin_7*%
%TO.N,/M-5*%
X49784000Y-57145000D03*
%TO.P,J3,8,Pin_8*%
%TO.N,/M-4*%
X49784000Y-54605000D03*
%TO.P,J3,9,Pin_9*%
%TO.N,/M-3*%
X49784000Y-52065000D03*
%TO.P,J3,10,Pin_10*%
%TO.N,/M-2*%
X49784000Y-49525000D03*
%TO.P,J3,11,Pin_11*%
%TO.N,/M-1*%
X49784000Y-46985000D03*
%TO.P,J3,12,Pin_12*%
%TO.N,/M-0*%
X49784000Y-44445000D03*
%TO.P,J3,13,Pin_13*%
%TO.N,/M-h*%
X49784000Y-41905000D03*
%TO.P,J3,14,Pin_14*%
%TO.N,/M-g*%
X49784000Y-39365000D03*
%TO.P,J3,15,Pin_15*%
%TO.N,/M-f*%
X49784000Y-36825000D03*
%TO.P,J3,16,Pin_16*%
%TO.N,/M-e*%
X49784000Y-34285000D03*
%TO.P,J3,17,Pin_17*%
%TO.N,/M-d*%
X49784000Y-31745000D03*
%TO.P,J3,18,Pin_18*%
%TO.N,/M-c*%
X49784000Y-29205000D03*
%TO.P,J3,19,Pin_19*%
%TO.N,/M-b*%
X49784000Y-26665000D03*
%TO.P,J3,20,Pin_20*%
%TO.N,/M-a*%
X49784000Y-24125000D03*
%TD*%
D18*
%TO.P,R1,1*%
%TO.N,Net-(U1-GPIO28_ADC2)*%
X94234000Y-57150000D03*
D19*
%TO.P,R1,2*%
%TO.N,Net-(J5-Pin_4)*%
X101854000Y-57150000D03*
%TD*%
D11*
%TO.P,J4,1,Pin_1*%
%TO.N,/PI-10*%
X110724000Y-31496000D03*
D12*
%TO.P,J4,2,Pin_2*%
%TO.N,/PI-09*%
X110724000Y-34036000D03*
%TO.P,J4,3,Pin_3*%
%TO.N,/PI-11*%
X110724000Y-36576000D03*
%TD*%
D10*
%TO.P,REF\u002A\u002A,*%
%TO.N,*%
X114000000Y-77000000D03*
%TD*%
D18*
%TO.P,R2,1*%
%TO.N,Net-(U1-GPIO27_ADC1)*%
X94234000Y-52324000D03*
D19*
%TO.P,R2,2*%
%TO.N,Net-(J5-Pin_3)*%
X101854000Y-52324000D03*
%TD*%
D20*
%TO.P,U1,1,GPIO0*%
%TO.N,/M-i*%
X65024000Y-72288500D03*
D15*
%TO.P,U1,2,GPIO1*%
%TO.N,/M-8*%
X65024000Y-69748500D03*
D21*
%TO.P,U1,3,GND*%
%TO.N,GNDPWR*%
X65024000Y-67208500D03*
D15*
%TO.P,U1,4,GPIO2*%
%TO.N,/M-7*%
X65024000Y-64668500D03*
%TO.P,U1,5,GPIO3*%
%TO.N,/M-6*%
X65024000Y-62128500D03*
%TO.P,U1,6,GPIO4*%
%TO.N,/M-5*%
X65024000Y-59588500D03*
%TO.P,U1,7,GPIO5*%
%TO.N,/M-4*%
X65024000Y-57048500D03*
D21*
%TO.P,U1,8,GND*%
%TO.N,GNDPWR*%
X65024000Y-54508500D03*
D15*
%TO.P,U1,9,GPIO6*%
%TO.N,/M-3*%
X65024000Y-51968500D03*
%TO.P,U1,10,GPIO7*%
%TO.N,/M-2*%
X65024000Y-49428500D03*
%TO.P,U1,11,GPIO8*%
%TO.N,/M-1*%
X65024000Y-46888500D03*
%TO.P,U1,12,GPIO9*%
%TO.N,/M-0*%
X65024000Y-44348500D03*
D21*
%TO.P,U1,13,GND*%
%TO.N,GNDPWR*%
X65024000Y-41808500D03*
D15*
%TO.P,U1,14,GPIO10*%
%TO.N,/M-h*%
X65024000Y-39268500D03*
%TO.P,U1,15,GPIO11*%
%TO.N,/M-g*%
X65024000Y-36728500D03*
%TO.P,U1,16,GPIO12*%
%TO.N,/M-f*%
X65024000Y-34188500D03*
%TO.P,U1,17,GPIO13*%
%TO.N,/M-e*%
X65024000Y-31648500D03*
D21*
%TO.P,U1,18,GND*%
%TO.N,GNDPWR*%
X65024000Y-29108500D03*
D15*
%TO.P,U1,19,GPIO14*%
%TO.N,/M-d*%
X65024000Y-26568500D03*
%TO.P,U1,20,GPIO15*%
%TO.N,/M-c*%
X65024000Y-24028500D03*
%TO.P,U1,21,GPIO16*%
%TO.N,/M-a*%
X82804000Y-24028500D03*
%TO.P,U1,22,GPIO17*%
%TO.N,/M-b*%
X82804000Y-26568500D03*
D22*
%TO.P,U1,23,GND*%
%TO.N,GNDPWR*%
X82804000Y-29108500D03*
D15*
%TO.P,U1,24,GPIO18*%
%TO.N,/PI-10*%
X82804000Y-31648500D03*
%TO.P,U1,25,GPIO19*%
%TO.N,/PI-09*%
X82804000Y-34188500D03*
%TO.P,U1,26,GPIO20*%
%TO.N,/PI-11*%
X82804000Y-36728500D03*
%TO.P,U1,27,GPIO21*%
%TO.N,unconnected-(U1-GPIO21-Pad27)*%
X82804000Y-39268500D03*
D22*
%TO.P,U1,28,GND*%
%TO.N,GNDPWR*%
X82804000Y-41808500D03*
D15*
%TO.P,U1,29,GPIO22*%
%TO.N,unconnected-(U1-GPIO22-Pad29)*%
X82804000Y-44348500D03*
%TO.P,U1,30,RUN*%
%TO.N,unconnected-(U1-RUN-Pad30)*%
X82804000Y-46888500D03*
%TO.P,U1,31,GPIO26_ADC0*%
%TO.N,Net-(U1-GPIO26_ADC0)*%
X82804000Y-49428500D03*
%TO.P,U1,32,GPIO27_ADC1*%
%TO.N,Net-(U1-GPIO27_ADC1)*%
X82804000Y-51968500D03*
D22*
%TO.P,U1,33,AGND*%
%TO.N,unconnected-(U1-AGND-Pad33)*%
X82804000Y-54508500D03*
D15*
%TO.P,U1,34,GPIO28_ADC2*%
%TO.N,Net-(U1-GPIO28_ADC2)*%
X82804000Y-57048500D03*
%TO.P,U1,35,ADC_VREF*%
%TO.N,unconnected-(U1-ADC_VREF-Pad35)*%
X82804000Y-59588500D03*
%TO.P,U1,36,3V3*%
%TO.N,Net-(J5-Pin_1)*%
X82804000Y-62128500D03*
%TO.P,U1,37,3V3_EN*%
%TO.N,unconnected-(U1-3V3_EN-Pad37)*%
X82804000Y-64668500D03*
D22*
%TO.P,U1,38,GND*%
%TO.N,GNDPWR*%
X82804000Y-67208500D03*
D15*
%TO.P,U1,39,VSYS*%
%TO.N,unconnected-(U1-VSYS-Pad39)*%
X82804000Y-69748500D03*
%TO.P,U1,40,VBUS*%
%TO.N,unconnected-(U1-VBUS-Pad40)*%
X82804000Y-72288500D03*
%TD*%
D18*
%TO.P,R3,1*%
%TO.N,Net-(U1-GPIO26_ADC0)*%
X94234000Y-47752000D03*
D19*
%TO.P,R3,2*%
%TO.N,Net-(J5-Pin_2)*%
X101854000Y-47752000D03*
%TD*%
D23*
%TO.N,/M-8*%
X44450000Y-34544000D03*
X44450000Y-64770000D03*
%TD*%
D24*
%TO.N,Net-(J5-Pin_4)*%
X101854000Y-57150000D02*
X106406000Y-57150000D01*
X106406000Y-57150000D02*
X110724000Y-52832000D01*
%TO.N,Net-(J5-Pin_2)*%
X110724000Y-47752000D02*
X101854000Y-47752000D01*
%TO.N,Net-(J5-Pin_3)*%
X104394000Y-52324000D02*
X106426000Y-50292000D01*
X101854000Y-52324000D02*
X104394000Y-52324000D01*
X106426000Y-50292000D02*
X110724000Y-50292000D01*
%TO.N,Net-(J5-Pin_1)*%
X113385500Y-62128500D02*
X115300000Y-60214000D01*
X115300000Y-60214000D02*
X115300000Y-49788000D01*
X82804000Y-62128500D02*
X113385500Y-62128500D01*
X115300000Y-49788000D02*
X110724000Y-45212000D01*
%TO.N,/M-h*%
X65024000Y-39268500D02*
X52496796Y-39268500D01*
D25*
X48779000Y-40900000D02*
X29470000Y-40900000D01*
D24*
X49860296Y-41905000D02*
X49784000Y-41905000D01*
X52496796Y-39268500D02*
X49860296Y-41905000D01*
D25*
X24638000Y-36068000D02*
X24638000Y-29399331D01*
X29470000Y-40900000D02*
X24638000Y-36068000D01*
D24*
X49784000Y-41905000D02*
X49315000Y-41436000D01*
D25*
X49315000Y-41436000D02*
X48779000Y-40900000D01*
X24638000Y-29399331D02*
X26706331Y-27331000D01*
D24*
%TO.N,/M-b*%
X48006000Y-19558000D02*
X46736000Y-20828000D01*
X84074000Y-19558000D02*
X48006000Y-19558000D01*
X82804000Y-26568500D02*
X85090000Y-24282500D01*
X46736000Y-23617000D02*
X49784000Y-26665000D01*
X46736000Y-20828000D02*
X46736000Y-23617000D01*
X85090000Y-20574000D02*
X84074000Y-19558000D01*
X85090000Y-24282500D02*
X85090000Y-20574000D01*
D25*
%TO.N,/M-i*%
X49784000Y-72385000D02*
X25903000Y-72385000D01*
X27178000Y-57404000D02*
X27784165Y-58010165D01*
X23500000Y-69982000D02*
X23500000Y-59812000D01*
X25903000Y-72385000D02*
X23500000Y-69982000D01*
X25908000Y-57404000D02*
X27178000Y-57404000D01*
D24*
X49880500Y-72288500D02*
X49784000Y-72385000D01*
D25*
X27784165Y-63525000D02*
X26434165Y-64875000D01*
X23500000Y-59812000D02*
X25908000Y-57404000D01*
D24*
X65024000Y-72288500D02*
X49880500Y-72288500D01*
D25*
X27784165Y-58010165D02*
X27784165Y-63525000D01*
%TO.N,/M-3*%
X49784000Y-52065000D02*
X35589000Y-66260000D01*
X35589000Y-66260000D02*
X29546331Y-66260000D01*
D24*
X65024000Y-51968500D02*
X49880500Y-51968500D01*
X49880500Y-51968500D02*
X49784000Y-52065000D01*
D25*
%TO.N,/M-1*%
X49784000Y-46985000D02*
X43281331Y-46985000D01*
D24*
X65024000Y-46888500D02*
X49880500Y-46888500D01*
D25*
X43281331Y-46985000D02*
X29546331Y-60720000D01*
D24*
X49880500Y-46888500D02*
X49784000Y-46985000D01*
%TO.N,/M-g*%
X65024000Y-36728500D02*
X52496796Y-36728500D01*
X49860296Y-39365000D02*
X49784000Y-39365000D01*
X52496796Y-36728500D02*
X49860296Y-39365000D01*
D25*
X49784000Y-39365000D02*
X34655331Y-39365000D01*
X34655331Y-39365000D02*
X29546331Y-34256000D01*
D24*
%TO.N,/M-4*%
X59334500Y-57048500D02*
X56891000Y-54605000D01*
D25*
X25908000Y-70612000D02*
X24600000Y-69304000D01*
D24*
X65024000Y-57048500D02*
X59334500Y-57048500D01*
D25*
X24600000Y-61441331D02*
X26706331Y-59335000D01*
X49784000Y-54605000D02*
X33777000Y-70612000D01*
X24600000Y-69304000D02*
X24600000Y-61441331D01*
D24*
X56891000Y-54605000D02*
X49784000Y-54605000D01*
D25*
X33777000Y-70612000D02*
X25908000Y-70612000D01*
D24*
%TO.N,/M-d*%
X55036796Y-26568500D02*
X49860296Y-31745000D01*
X49784000Y-31745000D02*
X49779000Y-31745000D01*
D25*
X49779000Y-31745000D02*
X43980000Y-25946000D01*
D24*
X65024000Y-26568500D02*
X55036796Y-26568500D01*
X49860296Y-31745000D02*
X49784000Y-31745000D01*
D25*
X43980000Y-25946000D02*
X29546331Y-25946000D01*
D24*
%TO.N,/M-a*%
X80534000Y-21758500D02*
X52150500Y-21758500D01*
X82804000Y-24028500D02*
X80534000Y-21758500D01*
X52150500Y-21758500D02*
X49784000Y-24125000D01*
%TO.N,/M-0*%
X65024000Y-44348500D02*
X49880500Y-44348500D01*
X49880500Y-44348500D02*
X49784000Y-44445000D01*
D25*
X49784000Y-44445000D02*
X43051331Y-44445000D01*
X43051331Y-44445000D02*
X29546331Y-57950000D01*
%TO.N,/M-8*%
X49784000Y-67305000D02*
X44450000Y-64770000D01*
X44450000Y-34544000D02*
X41656000Y-29972000D01*
X28575000Y-29972000D02*
X26434165Y-32112835D01*
D24*
X62381402Y-69748500D02*
X59937902Y-67305000D01*
D25*
X41656000Y-29972000D02*
X28575000Y-29972000D01*
D24*
X59937902Y-67305000D02*
X49784000Y-67305000D01*
X65024000Y-69748500D02*
X62381402Y-69748500D01*
D25*
X26706331Y-32871000D02*
X26706331Y-32639669D01*
X26434165Y-32112835D02*
X26434165Y-32725165D01*
D24*
%TO.N,/M-c*%
X65024000Y-24028500D02*
X55036796Y-24028500D01*
X55036796Y-24028500D02*
X49860296Y-29205000D01*
X49860296Y-29205000D02*
X49784000Y-29205000D01*
%TO.N,/M-e*%
X65024000Y-31648500D02*
X52496796Y-31648500D01*
X49784000Y-34285000D02*
X49271000Y-34285000D01*
D25*
X49271000Y-34285000D02*
X43702000Y-28716000D01*
X43702000Y-28716000D02*
X29546331Y-28716000D01*
D24*
X49860296Y-34285000D02*
X49784000Y-34285000D01*
X52496796Y-31648500D02*
X49860296Y-34285000D01*
%TO.N,/M-f*%
X65024000Y-34188500D02*
X52496796Y-34188500D01*
X52496796Y-34188500D02*
X49860296Y-36825000D01*
X49860296Y-36825000D02*
X49784000Y-36825000D01*
D25*
X34885331Y-36825000D02*
X29546331Y-31486000D01*
X49784000Y-36825000D02*
X34885331Y-36825000D01*
D24*
%TO.N,/M-7*%
X56837801Y-62225000D02*
X49784000Y-62225000D01*
X65024000Y-64668500D02*
X59281301Y-64668500D01*
X59281301Y-64668500D02*
X56837801Y-62225000D01*
%TO.N,/M-6*%
X65024000Y-62128500D02*
X59080500Y-62128500D01*
X59080500Y-62128500D02*
X56637000Y-59685000D01*
X56637000Y-59685000D02*
X49784000Y-59685000D01*
D25*
%TO.N,/M-2*%
X35316000Y-63490000D02*
X29546331Y-63490000D01*
X49281000Y-49525000D02*
X35316000Y-63490000D01*
D24*
X49784000Y-49525000D02*
X49281000Y-49525000D01*
X65024000Y-49428500D02*
X49880500Y-49428500D01*
X49880500Y-49428500D02*
X49784000Y-49525000D01*
%TO.N,/M-5*%
X56637000Y-57145000D02*
X49784000Y-57145000D01*
X65024000Y-59588500D02*
X59080500Y-59588500D01*
X59080500Y-59588500D02*
X56637000Y-57145000D01*
%TO.N,Net-(U1-GPIO28_ADC2)*%
X94132500Y-57048500D02*
X94234000Y-57150000D01*
X82804000Y-57048500D02*
X94132500Y-57048500D01*
%TO.N,Net-(U1-GPIO27_ADC1)*%
X93878500Y-51968500D02*
X94234000Y-52324000D01*
X82804000Y-51968500D02*
X93878500Y-51968500D01*
%TO.N,Net-(U1-GPIO26_ADC0)*%
X90170000Y-47752000D02*
X94234000Y-47752000D01*
X82804000Y-49428500D02*
X88493500Y-49428500D01*
X88493500Y-49428500D02*
X90170000Y-47752000D01*
%TO.N,/PI-10*%
X82804000Y-31648500D02*
X110571500Y-31648500D01*
X110571500Y-31648500D02*
X110724000Y-31496000D01*
%TO.N,/PI-11*%
X110571500Y-36728500D02*
X110724000Y-36576000D01*
X82804000Y-36728500D02*
X110571500Y-36728500D01*
%TO.N,/PI-09*%
X82804000Y-34188500D02*
X110571500Y-34188500D01*
X110571500Y-34188500D02*
X110724000Y-34036000D01*
%TD*%
%TA.AperFunction,Conductor*%
%TO.N,/M-8*%
G36*
X45023777Y-64212768D02*
G01*
X45023924Y-64212918D01*
X45561704Y-64774432D01*
X45990505Y-65222158D01*
X45993752Y-65230504D01*
X45992622Y-65235273D01*
X45784935Y-65672276D01*
X45778289Y-65678277D01*
X45773408Y-65678915D01*
X44460727Y-65570882D01*
X44452763Y-65566788D01*
X44449987Y-65559236D01*
X44449102Y-64774430D01*
X44452519Y-64766156D01*
X45007232Y-64212747D01*
X45015508Y-64209331D01*
X45023777Y-64212768D01*
G37*
%TD.AperFunction*%
%TD*%
%TA.AperFunction,Conductor*%
%TO.N,/M-8*%
G36*
X43843064Y-33065922D02*
G01*
X45005239Y-33970187D01*
X45009664Y-33977972D01*
X45007288Y-33986606D01*
X45006337Y-33987684D01*
X44453954Y-34541410D01*
X44445685Y-34544847D01*
X44445659Y-34544847D01*
X43659616Y-34544010D01*
X43651346Y-34540574D01*
X43648147Y-34534565D01*
X43411608Y-33329668D01*
X43413377Y-33320892D01*
X43416985Y-33317435D01*
X43829779Y-33065172D01*
X43838624Y-33063783D01*
X43843064Y-33065922D01*
G37*
%TD.AperFunction*%
%TD*%
%TA.AperFunction,Conductor*%
%TO.N,GNDPWR*%
G36*
X42322557Y-64247453D02*
G01*
X42447214Y-64315521D01*
X42547644Y-64415951D01*
X42615712Y-64540608D01*
X42645903Y-64679393D01*
X42645779Y-64752278D01*
X42644451Y-64770000D01*
X42664617Y-65039103D01*
X42664618Y-65039107D01*
X42724667Y-65302200D01*
X42823255Y-65553395D01*
X42823256Y-65553397D01*
X42958180Y-65787094D01*
X42958191Y-65787110D01*
X43126436Y-65998082D01*
X43126438Y-65998084D01*
X43126439Y-65998085D01*
X43324259Y-66181635D01*
X43547226Y-66333651D01*
X43790359Y-66450738D01*
X44048228Y-66530280D01*
X44315071Y-66570500D01*
X44327445Y-66570500D01*
X44368373Y-66572181D01*
X44602453Y-66591445D01*
X45439035Y-66660295D01*
X45577484Y-66691970D01*
X45612283Y-66706916D01*
X47804903Y-67748966D01*
X47828450Y-67760157D01*
X47946749Y-67838758D01*
X48038110Y-67947504D01*
X48081794Y-68036461D01*
X48096425Y-68075687D01*
X48096425Y-68075688D01*
X48231825Y-68323652D01*
X48230290Y-68324489D01*
X48280493Y-68434418D01*
X48300705Y-68575003D01*
X48280491Y-68715588D01*
X48230290Y-68825510D01*
X48231825Y-68826348D01*
X48223284Y-68841987D01*
X48223284Y-68841989D01*
X48208121Y-68869757D01*
X48096425Y-69074310D01*
X48096424Y-69074313D01*
X48003923Y-69322321D01*
X48003922Y-69322324D01*
X47947658Y-69580965D01*
X47947657Y-69580971D01*
X47947657Y-69580974D01*
X47928773Y-69845000D01*
X47941118Y-70017607D01*
X47947658Y-70109034D01*
X48003922Y-70367675D01*
X48003924Y-70367682D01*
X48038774Y-70461119D01*
X48068965Y-70599903D01*
X48058832Y-70741571D01*
X48009197Y-70874646D01*
X47924081Y-70988347D01*
X47810380Y-71073462D01*
X47677305Y-71123097D01*
X47571236Y-71134500D01*
X36227666Y-71134500D01*
X36087081Y-71114287D01*
X35957886Y-71055286D01*
X35850547Y-70962276D01*
X35773760Y-70842792D01*
X35733745Y-70706515D01*
X35733745Y-70564485D01*
X35773760Y-70428208D01*
X35850547Y-70308724D01*
X35874820Y-70282654D01*
X38825868Y-67331606D01*
X41795329Y-64362143D01*
X41909029Y-64277029D01*
X42042104Y-64227395D01*
X42183772Y-64217262D01*
X42322557Y-64247453D01*
G37*
%TD.AperFunction*%
%TA.AperFunction,Conductor*%
G36*
X59291689Y-68725713D02*
G01*
X59420884Y-68784714D01*
X59503950Y-68851654D01*
X60688450Y-70036154D01*
X60773566Y-70149855D01*
X60823200Y-70282930D01*
X60833333Y-70424598D01*
X60803142Y-70563383D01*
X60735074Y-70688040D01*
X60634644Y-70788470D01*
X60509987Y-70856538D01*
X60371202Y-70886729D01*
X60335604Y-70888000D01*
X52070109Y-70888000D01*
X51929524Y-70867787D01*
X51800329Y-70808786D01*
X51692990Y-70715776D01*
X51616203Y-70596292D01*
X51576188Y-70460015D01*
X51576188Y-70317985D01*
X51582513Y-70282930D01*
X51620341Y-70109034D01*
X51620343Y-70109026D01*
X51639227Y-69845000D01*
X51620343Y-69580974D01*
X51615567Y-69559020D01*
X51561521Y-69310570D01*
X51551388Y-69168901D01*
X51581579Y-69030117D01*
X51649647Y-68905460D01*
X51750078Y-68805030D01*
X51874735Y-68736962D01*
X52013519Y-68706771D01*
X52049117Y-68705500D01*
X59151104Y-68705500D01*
X59291689Y-68725713D01*
G37*
%TD.AperFunction*%
%TA.AperFunction,Conductor*%
G36*
X34045919Y-67530713D02*
G01*
X34175114Y-67589714D01*
X34282453Y-67682724D01*
X34359240Y-67802208D01*
X34399255Y-67938485D01*
X34399255Y-68080515D01*
X34359240Y-68216792D01*
X34282453Y-68336276D01*
X34258180Y-68362346D01*
X33405180Y-69215346D01*
X33291479Y-69300462D01*
X33158404Y-69350096D01*
X33052334Y-69361500D01*
X31567561Y-69361500D01*
X31426976Y-69341287D01*
X31297781Y-69282286D01*
X31190442Y-69189276D01*
X31113655Y-69069792D01*
X31073640Y-68933515D01*
X31069956Y-68899791D01*
X31059548Y-68760897D01*
X30999499Y-68497805D01*
X30983565Y-68457207D01*
X30900909Y-68246604D01*
X30892807Y-68229780D01*
X30895790Y-68228343D01*
X30855271Y-68127111D01*
X30841780Y-67985723D01*
X30868669Y-67846261D01*
X30933759Y-67720024D01*
X31031778Y-67617239D01*
X31154785Y-67546232D01*
X31292814Y-67512756D01*
X31340213Y-67510500D01*
X33905334Y-67510500D01*
X34045919Y-67530713D01*
G37*
%TD.AperFunction*%
%TA.AperFunction,Conductor*%
G36*
X56191588Y-63645713D02*
G01*
X56320783Y-63704714D01*
X56403849Y-63771654D01*
X57684849Y-65052654D01*
X57769965Y-65166355D01*
X57819599Y-65299430D01*
X57829732Y-65441098D01*
X57799541Y-65579883D01*
X57731473Y-65704540D01*
X57631043Y-65804970D01*
X57506386Y-65873038D01*
X57367601Y-65903229D01*
X57332003Y-65904500D01*
X52049117Y-65904500D01*
X51908532Y-65884287D01*
X51779337Y-65825286D01*
X51671998Y-65732276D01*
X51595211Y-65612792D01*
X51555196Y-65476515D01*
X51555196Y-65334485D01*
X51561521Y-65299430D01*
X51620341Y-65029034D01*
X51620343Y-65029026D01*
X51639227Y-64765000D01*
X51620343Y-64500974D01*
X51608953Y-64448614D01*
X51561521Y-64230570D01*
X51551388Y-64088901D01*
X51581579Y-63950117D01*
X51649647Y-63825460D01*
X51750078Y-63725030D01*
X51874735Y-63656962D01*
X52013519Y-63626771D01*
X52049117Y-63625500D01*
X56051003Y-63625500D01*
X56191588Y-63645713D01*
G37*
%TD.AperFunction*%
%TA.AperFunction,Conductor*%
G36*
X47622165Y-58947844D02*
G01*
X47746821Y-59015912D01*
X47847252Y-59116342D01*
X47915320Y-59240999D01*
X47945511Y-59379784D01*
X47945511Y-59450978D01*
X47928773Y-59685000D01*
X47941118Y-59857607D01*
X47947658Y-59949034D01*
X48003922Y-60207675D01*
X48003923Y-60207678D01*
X48096424Y-60455686D01*
X48096425Y-60455689D01*
X48231825Y-60703652D01*
X48230290Y-60704489D01*
X48280493Y-60814418D01*
X48300705Y-60955003D01*
X48280491Y-61095588D01*
X48230290Y-61205510D01*
X48231825Y-61206348D01*
X48096425Y-61454310D01*
X48096424Y-61454313D01*
X48003923Y-61702321D01*
X48003922Y-61702324D01*
X47947658Y-61960965D01*
X47947657Y-61960971D01*
X47947657Y-61960974D01*
X47928773Y-62225000D01*
X47941118Y-62397607D01*
X47947658Y-62489034D01*
X48003922Y-62747675D01*
X48003923Y-62747678D01*
X48096424Y-62995686D01*
X48096425Y-62995689D01*
X48180142Y-63149003D01*
X48206206Y-63196736D01*
X48231825Y-63243652D01*
X48230290Y-63244489D01*
X48280493Y-63354418D01*
X48300705Y-63495003D01*
X48280491Y-63635588D01*
X48230290Y-63745510D01*
X48231825Y-63746348D01*
X48223284Y-63761987D01*
X48223284Y-63761989D01*
X48208121Y-63789757D01*
X48096425Y-63994310D01*
X48096424Y-63994313D01*
X48003923Y-64242320D01*
X47973560Y-64381897D01*
X47923925Y-64514972D01*
X47838809Y-64628673D01*
X47725108Y-64713788D01*
X47592032Y-64763422D01*
X47450364Y-64773553D01*
X47311580Y-64743362D01*
X47271771Y-64726516D01*
X46687027Y-64448614D01*
X46568729Y-64370013D01*
X46540839Y-64343070D01*
X46514454Y-64315521D01*
X46444348Y-64242320D01*
X46217289Y-64005240D01*
X45776384Y-63544877D01*
X45771729Y-63539950D01*
X45766520Y-63534361D01*
X45762979Y-63530882D01*
X45750101Y-63517435D01*
X45742065Y-63509140D01*
X45742058Y-63509133D01*
X45741970Y-63509042D01*
X45741933Y-63509005D01*
X45741928Y-63509001D01*
X45741918Y-63508990D01*
X45713242Y-63485029D01*
X45693801Y-63467908D01*
X45575742Y-63358365D01*
X45352781Y-63206353D01*
X45352780Y-63206352D01*
X45352775Y-63206349D01*
X45233693Y-63149002D01*
X45109649Y-63089265D01*
X45109646Y-63089264D01*
X45109643Y-63089263D01*
X45109641Y-63089262D01*
X44851772Y-63009720D01*
X44851770Y-63009719D01*
X44851768Y-63009719D01*
X44745805Y-62993748D01*
X44584929Y-62969500D01*
X44392665Y-62969500D01*
X44252080Y-62949287D01*
X44122885Y-62890286D01*
X44015546Y-62797276D01*
X43938759Y-62677792D01*
X43898744Y-62541515D01*
X43898744Y-62399485D01*
X43938759Y-62263208D01*
X44015546Y-62143724D01*
X44039819Y-62117654D01*
X45551871Y-60605602D01*
X47094940Y-59062532D01*
X47208637Y-58977420D01*
X47341712Y-58927786D01*
X47483380Y-58917653D01*
X47622165Y-58947844D01*
G37*
%TD.AperFunction*%
%TA.AperFunction,Conductor*%
G36*
X47692505Y-48255713D02*
G01*
X47821700Y-48314714D01*
X47929039Y-48407724D01*
X48005826Y-48527208D01*
X48045841Y-48663485D01*
X48045841Y-48805515D01*
X48005826Y-48941792D01*
X47996534Y-48961038D01*
X47983105Y-48987392D01*
X47975599Y-49005515D01*
X47972409Y-49004193D01*
X47925135Y-49100294D01*
X47866132Y-49171392D01*
X34944180Y-62093346D01*
X34830479Y-62178462D01*
X34697404Y-62228096D01*
X34591334Y-62239500D01*
X31340213Y-62239500D01*
X31199628Y-62219287D01*
X31070433Y-62160286D01*
X30963094Y-62067276D01*
X30886307Y-61947792D01*
X30846292Y-61811515D01*
X30846292Y-61669485D01*
X30886307Y-61533208D01*
X30892963Y-61520295D01*
X30892807Y-61520220D01*
X30900909Y-61503395D01*
X30999499Y-61252195D01*
X31031654Y-61111314D01*
X31082641Y-60978755D01*
X31165292Y-60869511D01*
X43653151Y-48381654D01*
X43766852Y-48296538D01*
X43899927Y-48246904D01*
X44005997Y-48235500D01*
X47551920Y-48235500D01*
X47692505Y-48255713D01*
G37*
%TD.AperFunction*%
%TA.AperFunction,Conductor*%
G36*
X62948125Y-53389213D02*
G01*
X63077320Y-53448214D01*
X63184659Y-53541224D01*
X63261446Y-53660708D01*
X63301461Y-53796985D01*
X63301461Y-53939015D01*
X63285899Y-54004223D01*
X63287267Y-54004602D01*
X63283540Y-54018085D01*
X63240441Y-54216834D01*
X63220257Y-54395967D01*
X63218049Y-54417684D01*
X63218049Y-54417690D01*
X63220257Y-54621034D01*
X63220257Y-54621037D01*
X63240442Y-54800180D01*
X63243120Y-54821822D01*
X63243121Y-54821827D01*
X63293466Y-55031867D01*
X63290709Y-55032527D01*
X63307452Y-55149038D01*
X63287228Y-55289621D01*
X63228217Y-55418811D01*
X63135199Y-55526144D01*
X63015710Y-55602922D01*
X62879430Y-55642926D01*
X62808452Y-55648000D01*
X60121298Y-55648000D01*
X59980713Y-55627787D01*
X59851518Y-55568786D01*
X59768452Y-55501846D01*
X58487452Y-54220846D01*
X58402336Y-54107145D01*
X58352702Y-53974070D01*
X58342569Y-53832402D01*
X58372760Y-53693617D01*
X58440828Y-53568960D01*
X58541258Y-53468530D01*
X58665915Y-53400462D01*
X58804700Y-53370271D01*
X58840298Y-53369000D01*
X62807540Y-53369000D01*
X62948125Y-53389213D01*
G37*
%TD.AperFunction*%
%TA.AperFunction,Conductor*%
G36*
X62948125Y-40689213D02*
G01*
X63077320Y-40748214D01*
X63184659Y-40841224D01*
X63261446Y-40960708D01*
X63301461Y-41096985D01*
X63301461Y-41239015D01*
X63285899Y-41304223D01*
X63287267Y-41304602D01*
X63283540Y-41318085D01*
X63240441Y-41516834D01*
X63220257Y-41695967D01*
X63218049Y-41717684D01*
X63218049Y-41717690D01*
X63220257Y-41921034D01*
X63220257Y-41921037D01*
X63240442Y-42100180D01*
X63243120Y-42121822D01*
X63243121Y-42121827D01*
X63293466Y-42331867D01*
X63290709Y-42332527D01*
X63307452Y-42449038D01*
X63287228Y-42589621D01*
X63228217Y-42718811D01*
X63135199Y-42826144D01*
X63015710Y-42902922D01*
X62879430Y-42942926D01*
X62808452Y-42948000D01*
X52070109Y-42948000D01*
X51929524Y-42927787D01*
X51800329Y-42868786D01*
X51692990Y-42775776D01*
X51616203Y-42656292D01*
X51576188Y-42520015D01*
X51576188Y-42377985D01*
X51582512Y-42342933D01*
X51590002Y-42308500D01*
X51601283Y-42256642D01*
X51650916Y-42123571D01*
X51736023Y-42009877D01*
X52930751Y-40815150D01*
X53044449Y-40730038D01*
X53177524Y-40680404D01*
X53283594Y-40669000D01*
X62807540Y-40669000D01*
X62948125Y-40689213D01*
G37*
%TD.AperFunction*%
%TA.AperFunction,Conductor*%
G36*
X31218684Y-37797457D02*
G01*
X31350178Y-37851140D01*
X31450591Y-37928734D01*
X32319511Y-38797654D01*
X32404627Y-38911355D01*
X32454261Y-39044430D01*
X32464394Y-39186098D01*
X32434203Y-39324883D01*
X32366135Y-39449540D01*
X32265705Y-39549970D01*
X32141048Y-39618038D01*
X32002263Y-39648229D01*
X31966665Y-39649500D01*
X30194666Y-39649500D01*
X30054081Y-39629287D01*
X29924886Y-39570286D01*
X29841820Y-39503346D01*
X29728815Y-39390341D01*
X29643699Y-39276640D01*
X29594065Y-39143565D01*
X29583932Y-39001897D01*
X29614123Y-38863112D01*
X29682191Y-38738455D01*
X29782621Y-38638025D01*
X29907278Y-38569957D01*
X29933349Y-38561082D01*
X29933795Y-38560906D01*
X29933806Y-38560903D01*
X30176940Y-38443816D01*
X30399906Y-38291800D01*
X30597726Y-38108250D01*
X30707611Y-37970458D01*
X30811067Y-37873148D01*
X30937748Y-37808926D01*
X31077392Y-37782995D01*
X31218684Y-37797457D01*
G37*
%TD.AperFunction*%
%TA.AperFunction,Conductor*%
G36*
X40815405Y-31242713D02*
G01*
X40944600Y-31301714D01*
X41051939Y-31394724D01*
X41100608Y-31461297D01*
X42408678Y-33601776D01*
X42464738Y-33732274D01*
X42472544Y-33765853D01*
X42650541Y-34672545D01*
X42658491Y-34731374D01*
X42664616Y-34813100D01*
X42664617Y-34813103D01*
X42699164Y-34964465D01*
X42710741Y-35106018D01*
X42681968Y-35245103D01*
X42615175Y-35370448D01*
X42515775Y-35471898D01*
X42391819Y-35541234D01*
X42253350Y-35572839D01*
X42212675Y-35574500D01*
X35609997Y-35574500D01*
X35469412Y-35554287D01*
X35340217Y-35495286D01*
X35257151Y-35428346D01*
X31903151Y-32074346D01*
X31818035Y-31960645D01*
X31768401Y-31827570D01*
X31758268Y-31685902D01*
X31788459Y-31547117D01*
X31856527Y-31422460D01*
X31956957Y-31322030D01*
X32081614Y-31253962D01*
X32220399Y-31223771D01*
X32255997Y-31222500D01*
X40674820Y-31222500D01*
X40815405Y-31242713D01*
G37*
%TD.AperFunction*%
%TA.AperFunction,Conductor*%
G36*
X62948125Y-27989213D02*
G01*
X63077320Y-28048214D01*
X63184659Y-28141224D01*
X63261446Y-28260708D01*
X63301461Y-28396985D01*
X63301461Y-28539015D01*
X63285899Y-28604223D01*
X63287267Y-28604602D01*
X63283540Y-28618085D01*
X63240441Y-28816834D01*
X63220257Y-28995967D01*
X63218049Y-29017684D01*
X63218049Y-29017690D01*
X63220257Y-29221034D01*
X63220257Y-29221037D01*
X63240442Y-29400180D01*
X63243120Y-29421822D01*
X63243121Y-29421827D01*
X63293466Y-29631867D01*
X63290709Y-29632527D01*
X63307452Y-29749038D01*
X63287228Y-29889621D01*
X63228217Y-30018811D01*
X63135199Y-30126144D01*
X63015710Y-30202922D01*
X62879430Y-30242926D01*
X62808452Y-30248000D01*
X54542594Y-30248000D01*
X54402009Y-30227787D01*
X54272814Y-30168786D01*
X54165475Y-30075776D01*
X54088688Y-29956292D01*
X54048673Y-29820015D01*
X54048673Y-29677985D01*
X54088688Y-29541708D01*
X54165475Y-29422224D01*
X54189748Y-29396154D01*
X55470748Y-28115154D01*
X55584449Y-28030038D01*
X55717524Y-27980404D01*
X55823594Y-27969000D01*
X62807540Y-27969000D01*
X62948125Y-27989213D01*
G37*
%TD.AperFunction*%
%TA.AperFunction,Conductor*%
G36*
X79887787Y-23179213D02*
G01*
X80016982Y-23238214D01*
X80100048Y-23305154D01*
X80895113Y-24100219D01*
X80980229Y-24213920D01*
X81028756Y-24342026D01*
X81078667Y-24560700D01*
X81177255Y-24811895D01*
X81177259Y-24811903D01*
X81314147Y-25049003D01*
X81366934Y-25180860D01*
X81380434Y-25322247D01*
X81353553Y-25461710D01*
X81314147Y-25547997D01*
X81177259Y-25785096D01*
X81177257Y-25785100D01*
X81071960Y-26053390D01*
X81001782Y-26176871D01*
X80899658Y-26275580D01*
X80773862Y-26341518D01*
X80634584Y-26369344D01*
X80493109Y-26356804D01*
X80360897Y-26304914D01*
X80301389Y-26265194D01*
X77451667Y-24052112D01*
X77353031Y-23949919D01*
X77287181Y-23824077D01*
X77259452Y-23684779D01*
X77272091Y-23543313D01*
X77324074Y-23411137D01*
X77411190Y-23298961D01*
X77526380Y-23215872D01*
X77660313Y-23168602D01*
X77757733Y-23159000D01*
X79747202Y-23159000D01*
X79887787Y-23179213D01*
G37*
%TD.AperFunction*%
%TA.AperFunction,Conductor*%
G36*
X70210852Y-23179213D02*
G01*
X70340047Y-23238214D01*
X70447386Y-23331224D01*
X70524173Y-23450708D01*
X70564188Y-23586985D01*
X70564188Y-23729015D01*
X70524173Y-23865292D01*
X70447386Y-23984776D01*
X70376333Y-24052112D01*
X67526610Y-26265194D01*
X67403178Y-26335459D01*
X67264950Y-26368102D01*
X67123124Y-26360480D01*
X66989191Y-26313210D01*
X66874001Y-26230121D01*
X66786885Y-26117945D01*
X66756039Y-26053389D01*
X66650744Y-25785104D01*
X66650743Y-25785102D01*
X66513852Y-25547998D01*
X66461066Y-25416142D01*
X66447565Y-25274755D01*
X66474445Y-25135291D01*
X66513852Y-25049002D01*
X66541360Y-25001357D01*
X66650743Y-24811898D01*
X66749334Y-24560695D01*
X66809383Y-24297603D01*
X66829549Y-24028500D01*
X66809383Y-23759397D01*
X66809380Y-23759386D01*
X66806599Y-23740925D01*
X66809250Y-23740525D01*
X66800008Y-23627468D01*
X66828785Y-23488384D01*
X66895581Y-23363041D01*
X66994984Y-23261593D01*
X67118942Y-23192261D01*
X67257412Y-23160659D01*
X67298073Y-23159000D01*
X70070267Y-23159000D01*
X70210852Y-23179213D01*
G37*
%TD.AperFunction*%
%TA.AperFunction,Conductor*%
G36*
X49905786Y-20978713D02*
G01*
X50034981Y-21037714D01*
X50142320Y-21130724D01*
X50219107Y-21250208D01*
X50259122Y-21386485D01*
X50259122Y-21528515D01*
X50219107Y-21664792D01*
X50142320Y-21784276D01*
X50118055Y-21810337D01*
X49853212Y-22075181D01*
X49776637Y-22151756D01*
X49662936Y-22236871D01*
X49529862Y-22286505D01*
X49261322Y-22344922D01*
X49261321Y-22344923D01*
X49013313Y-22437424D01*
X49013308Y-22437426D01*
X48874645Y-22513143D01*
X48741570Y-22562777D01*
X48599902Y-22572910D01*
X48461117Y-22542719D01*
X48336460Y-22474651D01*
X48236030Y-22374221D01*
X48167962Y-22249564D01*
X48137771Y-22110779D01*
X48136500Y-22075181D01*
X48136500Y-21614798D01*
X48156713Y-21474213D01*
X48215714Y-21345018D01*
X48282654Y-21261952D01*
X48439952Y-21104654D01*
X48553653Y-21019538D01*
X48686728Y-20969904D01*
X48792798Y-20958500D01*
X49765201Y-20958500D01*
X49905786Y-20978713D01*
G37*
%TD.AperFunction*%
%TA.AperFunction,Conductor*%
G36*
X117553085Y-13974713D02*
G01*
X117682280Y-14033714D01*
X117789619Y-14126724D01*
X117866406Y-14246208D01*
X117906421Y-14382485D01*
X117911500Y-14453500D01*
X117911500Y-80332500D01*
X117891287Y-80473085D01*
X117832286Y-80602280D01*
X117739276Y-80709619D01*
X117619792Y-80786406D01*
X117483515Y-80826421D01*
X117412500Y-80831500D01*
X21387500Y-80831500D01*
X21246915Y-80811287D01*
X21117720Y-80752286D01*
X21010381Y-80659276D01*
X20933594Y-80539792D01*
X20893579Y-80403515D01*
X20888500Y-80332500D01*
X20888500Y-59713582D01*
X22249500Y-59713582D01*
X22249500Y-70080417D01*
X22280290Y-70274825D01*
X22280292Y-70274832D01*
X22341111Y-70462013D01*
X22341118Y-70462030D01*
X22411367Y-70599903D01*
X22430476Y-70637405D01*
X22546172Y-70796646D01*
X25088354Y-73338828D01*
X25247595Y-73454524D01*
X25422974Y-73543884D01*
X25422984Y-73543887D01*
X25422986Y-73543888D01*
X25610167Y-73604707D01*
X25610174Y-73604709D01*
X25804582Y-73635500D01*
X25804583Y-73635500D01*
X26001416Y-73635500D01*
X26004563Y-73635500D01*
X26145148Y-73655713D01*
X26274343Y-73714714D01*
X26381682Y-73807724D01*
X26458469Y-73927208D01*
X26498484Y-74063485D01*
X26498484Y-74205515D01*
X26458469Y-74341792D01*
X26436710Y-74384000D01*
X26288278Y-74641090D01*
X26288276Y-74641093D01*
X26149839Y-74962027D01*
X26149836Y-74962034D01*
X26049597Y-75296857D01*
X26049592Y-75296878D01*
X25988902Y-75641075D01*
X25968580Y-75990000D01*
X25988902Y-76338924D01*
X26049592Y-76683121D01*
X26049597Y-76683142D01*
X26149836Y-77017965D01*
X26149839Y-77017972D01*
X26288276Y-77338906D01*
X26288285Y-77338922D01*
X26463030Y-77641589D01*
X26463032Y-77641593D01*
X26594971Y-77818817D01*
X26671753Y-77921953D01*
X26911607Y-78176183D01*
X27179354Y-78400849D01*
X27179356Y-78400850D01*
X27471372Y-78592913D01*
X27783699Y-78749770D01*
X27783706Y-78749773D01*
X27783714Y-78749777D01*
X28112154Y-78869319D01*
X28112158Y-78869320D01*
X28112161Y-78869321D01*
X28452241Y-78949921D01*
X28452244Y-78949921D01*
X28452251Y-78949923D01*
X28723195Y-78981592D01*
X28799404Y-78990500D01*
X28799406Y-78990500D01*
X29148926Y-78990500D01*
X29217596Y-78982473D01*
X29496079Y-78949923D01*
X29496086Y-78949921D01*
X29496088Y-78949921D01*
X29836168Y-78869321D01*
X29836168Y-78869320D01*
X29836176Y-78869319D01*
X30164616Y-78749777D01*
X30476958Y-78592913D01*
X30768976Y-78400849D01*
X31036723Y-78176183D01*
X31276577Y-77921953D01*
X31485295Y-77641596D01*
X31501996Y-77612667D01*
X31660044Y-77338922D01*
X31660053Y-77338906D01*
X31685520Y-77279867D01*
X31798491Y-77017971D01*
X31803871Y-77000000D01*
X34944709Y-77000000D01*
X34963852Y-77279866D01*
X34963853Y-77279867D01*
X35020923Y-77554505D01*
X35020927Y-77554518D01*
X35051875Y-77641596D01*
X35114864Y-77818830D01*
X35243919Y-78067896D01*
X35243922Y-78067900D01*
X35320357Y-78176184D01*
X35405688Y-78297069D01*
X35597155Y-78502081D01*
X35814752Y-78679110D01*
X35814754Y-78679111D01*
X36054432Y-78824862D01*
X36311725Y-78936620D01*
X36359197Y-78949921D01*
X36581837Y-79012303D01*
X36859742Y-79050500D01*
X37140258Y-79050500D01*
X37418162Y-79012303D01*
X37508199Y-78987075D01*
X37688275Y-78936620D01*
X37945568Y-78824862D01*
X38185246Y-78679111D01*
X38402845Y-78502081D01*
X38594312Y-78297069D01*
X38756081Y-78067896D01*
X38885136Y-77818830D01*
X38979075Y-77554511D01*
X39036148Y-77279862D01*
X39055291Y-77000000D01*
X111944709Y-77000000D01*
X111963852Y-77279866D01*
X111963853Y-77279867D01*
X112020923Y-77554505D01*
X112020927Y-77554518D01*
X112051875Y-77641596D01*
X112114864Y-77818830D01*
X112243919Y-78067896D01*
X112243922Y-78067900D01*
X112320357Y-78176184D01*
X112405688Y-78297069D01*
X112597155Y-78502081D01*
X112814752Y-78679110D01*
X112814754Y-78679111D01*
X113054432Y-78824862D01*
X113311725Y-78936620D01*
X113359197Y-78949921D01*
X113581837Y-79012303D01*
X113859742Y-79050500D01*
X114140258Y-79050500D01*
X114418162Y-79012303D01*
X114508199Y-78987075D01*
X114688275Y-78936620D01*
X114945568Y-78824862D01*
X115185246Y-78679111D01*
X115402845Y-78502081D01*
X115594312Y-78297069D01*
X115756081Y-78067896D01*
X115885136Y-77818830D01*
X115979075Y-77554511D01*
X116036148Y-77279862D01*
X116055291Y-77000000D01*
X116036148Y-76720138D01*
X115979075Y-76445489D01*
X115885136Y-76181170D01*
X115756081Y-75932104D01*
X115594312Y-75702931D01*
X115402845Y-75497919D01*
X115402844Y-75497918D01*
X115185247Y-75320889D01*
X114945570Y-75175139D01*
X114945568Y-75175138D01*
X114845332Y-75131599D01*
X114688283Y-75063383D01*
X114688273Y-75063379D01*
X114418162Y-74987696D01*
X114140258Y-74949500D01*
X113859742Y-74949500D01*
X113581837Y-74987696D01*
X113311726Y-75063379D01*
X113311716Y-75063383D01*
X113054434Y-75175137D01*
X113054429Y-75175139D01*
X112814752Y-75320889D01*
X112597155Y-75497918D01*
X112405684Y-75702935D01*
X112243922Y-75932099D01*
X112114865Y-76181167D01*
X112114859Y-76181182D01*
X112020927Y-76445481D01*
X112020923Y-76445494D01*
X111963853Y-76720132D01*
X111963852Y-76720133D01*
X111944709Y-77000000D01*
X39055291Y-77000000D01*
X39036148Y-76720138D01*
X38979075Y-76445489D01*
X38885136Y-76181170D01*
X38756081Y-75932104D01*
X38594312Y-75702931D01*
X38402845Y-75497919D01*
X38402844Y-75497918D01*
X38185247Y-75320889D01*
X37945570Y-75175139D01*
X37945568Y-75175138D01*
X37845332Y-75131599D01*
X37688283Y-75063383D01*
X37688273Y-75063379D01*
X37418162Y-74987696D01*
X37140258Y-74949500D01*
X36859742Y-74949500D01*
X36581837Y-74987696D01*
X36311726Y-75063379D01*
X36311716Y-75063383D01*
X36054434Y-75175137D01*
X36054429Y-75175139D01*
X35814752Y-75320889D01*
X35597155Y-75497918D01*
X35405684Y-75702935D01*
X35243922Y-75932099D01*
X35114865Y-76181167D01*
X35114859Y-76181182D01*
X35020927Y-76445481D01*
X35020923Y-76445494D01*
X34963853Y-76720132D01*
X34963852Y-76720133D01*
X34944709Y-77000000D01*
X31803871Y-77000000D01*
X31898734Y-76683136D01*
X31959427Y-76338927D01*
X31979750Y-75990000D01*
X31959427Y-75641073D01*
X31934185Y-75497918D01*
X31898737Y-75296878D01*
X31898732Y-75296857D01*
X31798493Y-74962034D01*
X31798490Y-74962027D01*
X31793086Y-74949500D01*
X31660054Y-74641096D01*
X31660053Y-74641093D01*
X31660051Y-74641090D01*
X31511620Y-74384000D01*
X31458833Y-74252144D01*
X31445332Y-74110757D01*
X31472212Y-73971293D01*
X31537294Y-73845052D01*
X31635306Y-73742259D01*
X31758307Y-73671244D01*
X31896334Y-73637760D01*
X31943767Y-73635500D01*
X47732646Y-73635500D01*
X47873231Y-73655713D01*
X48002426Y-73714714D01*
X48109765Y-73807724D01*
X48119359Y-73819137D01*
X48146281Y-73852154D01*
X48222893Y-73946112D01*
X48360172Y-74058047D01*
X48380593Y-74074698D01*
X48560951Y-74168909D01*
X48756582Y-74224886D01*
X48875963Y-74235500D01*
X50692036Y-74235499D01*
X50811418Y-74224886D01*
X51007049Y-74168909D01*
X51187407Y-74074698D01*
X51316750Y-73969233D01*
X51345108Y-73946110D01*
X51345110Y-73946108D01*
X51404998Y-73872662D01*
X51509504Y-73776480D01*
X51636875Y-73713637D01*
X51776791Y-73689224D01*
X51791731Y-73689000D01*
X63320617Y-73689000D01*
X63461202Y-73709213D01*
X63590397Y-73768214D01*
X63639408Y-73804108D01*
X63653783Y-73816045D01*
X63706496Y-73852154D01*
X63837329Y-73941777D01*
X64040857Y-74031643D01*
X64257433Y-74082581D01*
X64257439Y-74082581D01*
X64257443Y-74082582D01*
X64297302Y-74085348D01*
X64349908Y-74089000D01*
X64349919Y-74089000D01*
X65698081Y-74089000D01*
X65698092Y-74089000D01*
X65759742Y-74084720D01*
X65790556Y-74082582D01*
X65790558Y-74082581D01*
X65790567Y-74082581D01*
X66007143Y-74031643D01*
X66210671Y-73941777D01*
X66394221Y-73816042D01*
X66551542Y-73658721D01*
X66677277Y-73475171D01*
X66767143Y-73271643D01*
X66818081Y-73055067D01*
X66824500Y-72962592D01*
X66824500Y-71614408D01*
X66818081Y-71521933D01*
X66767143Y-71305357D01*
X66677277Y-71101829D01*
X66661945Y-71079447D01*
X66599173Y-70952043D01*
X66574838Y-70812113D01*
X66590910Y-70670995D01*
X66641479Y-70547943D01*
X66650740Y-70531903D01*
X66650743Y-70531898D01*
X66749334Y-70280695D01*
X66809383Y-70017603D01*
X66829549Y-69748500D01*
X66809383Y-69479397D01*
X66749334Y-69216305D01*
X66693604Y-69074310D01*
X66650744Y-68965104D01*
X66650742Y-68965101D01*
X66650739Y-68965096D01*
X66624756Y-68920091D01*
X66571969Y-68788237D01*
X66558468Y-68646849D01*
X66585347Y-68507386D01*
X66650429Y-68381144D01*
X66728442Y-68299326D01*
X66788625Y-68121155D01*
X66788626Y-68121150D01*
X66808945Y-68032133D01*
X66817729Y-67989386D01*
X66817730Y-67989384D01*
X66833906Y-67786676D01*
X66832773Y-67777515D01*
X66829000Y-67716267D01*
X66829000Y-67331606D01*
X66829511Y-67309032D01*
X66829950Y-67299316D01*
X66829029Y-67214468D01*
X66829000Y-67209046D01*
X66829000Y-66668033D01*
X66830581Y-66628342D01*
X66833906Y-66586670D01*
X66808945Y-66384867D01*
X66808944Y-66384865D01*
X66788625Y-66295840D01*
X66777997Y-66253531D01*
X66720969Y-66106138D01*
X66708703Y-66097072D01*
X66622898Y-65983890D01*
X66572456Y-65851119D01*
X66561462Y-65709515D01*
X66590809Y-65570550D01*
X66627251Y-65492588D01*
X66650741Y-65451901D01*
X66650744Y-65451895D01*
X66749332Y-65200700D01*
X66749331Y-65200700D01*
X66749334Y-65200695D01*
X66809383Y-64937603D01*
X66829549Y-64668500D01*
X66809383Y-64399397D01*
X66749334Y-64136305D01*
X66726823Y-64078949D01*
X66650744Y-63885104D01*
X66650743Y-63885102D01*
X66513852Y-63647998D01*
X66461066Y-63516142D01*
X66447565Y-63374755D01*
X66474445Y-63235291D01*
X66513852Y-63149002D01*
X66548341Y-63089265D01*
X66650743Y-62911898D01*
X66749334Y-62660695D01*
X66809383Y-62397603D01*
X66829549Y-62128500D01*
X66809383Y-61859397D01*
X66749334Y-61596305D01*
X66712870Y-61503398D01*
X66650744Y-61345104D01*
X66650743Y-61345102D01*
X66513852Y-61107998D01*
X66461066Y-60976142D01*
X66447565Y-60834755D01*
X66474445Y-60695291D01*
X66513852Y-60609002D01*
X66544582Y-60555776D01*
X66650743Y-60371898D01*
X66749334Y-60120695D01*
X66809383Y-59857603D01*
X66829549Y-59588500D01*
X66809383Y-59319397D01*
X66749334Y-59056305D01*
X66726197Y-58997354D01*
X66650744Y-58805104D01*
X66650743Y-58805102D01*
X66513852Y-58567998D01*
X66461066Y-58436142D01*
X66447565Y-58294755D01*
X66474445Y-58155291D01*
X66513852Y-58069002D01*
X66617261Y-57889891D01*
X66650743Y-57831898D01*
X66749334Y-57580695D01*
X66809383Y-57317603D01*
X66829549Y-57048500D01*
X66809383Y-56779397D01*
X66749334Y-56516305D01*
X66723378Y-56450172D01*
X66650744Y-56265104D01*
X66650742Y-56265101D01*
X66642701Y-56251174D01*
X66624756Y-56220091D01*
X66571969Y-56088237D01*
X66558468Y-55946849D01*
X66585347Y-55807386D01*
X66650429Y-55681144D01*
X66728442Y-55599326D01*
X66788625Y-55421155D01*
X66788626Y-55421150D01*
X66808945Y-55332133D01*
X66817729Y-55289386D01*
X66817730Y-55289384D01*
X66833906Y-55086676D01*
X66832773Y-55077515D01*
X66829000Y-55016267D01*
X66829000Y-54631606D01*
X66829511Y-54609032D01*
X66829950Y-54599316D01*
X66829029Y-54514468D01*
X66829000Y-54509046D01*
X66829000Y-53968033D01*
X66830581Y-53928342D01*
X66833906Y-53886670D01*
X66808945Y-53684867D01*
X66808944Y-53684865D01*
X66788625Y-53595840D01*
X66777997Y-53553531D01*
X66720969Y-53406138D01*
X66708703Y-53397072D01*
X66622898Y-53283890D01*
X66572456Y-53151119D01*
X66561462Y-53009515D01*
X66590809Y-52870550D01*
X66627251Y-52792588D01*
X66650741Y-52751901D01*
X66650744Y-52751895D01*
X66694037Y-52641589D01*
X66749334Y-52500695D01*
X66809383Y-52237603D01*
X66829549Y-51968500D01*
X66809383Y-51699397D01*
X66749334Y-51436305D01*
X66720715Y-51363387D01*
X66650744Y-51185104D01*
X66650743Y-51185102D01*
X66513852Y-50947998D01*
X66461066Y-50816142D01*
X66447565Y-50674755D01*
X66474445Y-50535291D01*
X66513852Y-50449002D01*
X66515815Y-50445602D01*
X66650743Y-50211898D01*
X66749334Y-49960695D01*
X66809383Y-49697603D01*
X66829549Y-49428500D01*
X66809383Y-49159397D01*
X66749334Y-48896305D01*
X66741218Y-48875627D01*
X66650744Y-48645104D01*
X66650743Y-48645102D01*
X66513852Y-48407998D01*
X66461066Y-48276142D01*
X66447565Y-48134755D01*
X66474445Y-47995291D01*
X66513852Y-47909002D01*
X66650740Y-47671903D01*
X66650743Y-47671898D01*
X66749334Y-47420695D01*
X66809383Y-47157603D01*
X66829549Y-46888500D01*
X66809383Y-46619397D01*
X66749334Y-46356305D01*
X66747448Y-46351500D01*
X66650744Y-46105104D01*
X66650743Y-46105102D01*
X66513852Y-45867998D01*
X66461066Y-45736142D01*
X66447565Y-45594755D01*
X66474445Y-45455291D01*
X66513852Y-45369002D01*
X66538163Y-45326893D01*
X66650743Y-45131898D01*
X66749334Y-44880695D01*
X66809383Y-44617603D01*
X66829549Y-44348500D01*
X66809383Y-44079397D01*
X66749334Y-43816305D01*
X66737968Y-43787346D01*
X66650744Y-43565104D01*
X66650742Y-43565101D01*
X66650739Y-43565096D01*
X66624756Y-43520091D01*
X66571969Y-43388237D01*
X66558468Y-43246849D01*
X66585347Y-43107386D01*
X66650429Y-42981144D01*
X66728442Y-42899326D01*
X66788625Y-42721155D01*
X66788626Y-42721150D01*
X66808945Y-42632133D01*
X66817729Y-42589386D01*
X66817730Y-42589384D01*
X66833906Y-42386676D01*
X66832773Y-42377515D01*
X66829000Y-42316267D01*
X66829000Y-41931606D01*
X66829511Y-41909032D01*
X66829950Y-41899316D01*
X66829029Y-41814468D01*
X66829000Y-41809046D01*
X66829000Y-41268033D01*
X66830581Y-41228342D01*
X66833906Y-41186670D01*
X66808945Y-40984867D01*
X66808944Y-40984865D01*
X66788625Y-40895840D01*
X66777997Y-40853531D01*
X66720969Y-40706138D01*
X66708703Y-40697072D01*
X66622898Y-40583890D01*
X66572456Y-40451119D01*
X66561462Y-40309515D01*
X66590809Y-40170550D01*
X66627251Y-40092588D01*
X66650741Y-40051901D01*
X66650744Y-40051895D01*
X66749332Y-39800700D01*
X66749331Y-39800700D01*
X66749334Y-39800695D01*
X66809383Y-39537603D01*
X66829549Y-39268500D01*
X66809383Y-38999397D01*
X66749334Y-38736305D01*
X66711711Y-38640445D01*
X66650744Y-38485104D01*
X66650743Y-38485102D01*
X66513852Y-38247998D01*
X66461066Y-38116142D01*
X66447565Y-37974755D01*
X66474445Y-37835291D01*
X66513852Y-37749002D01*
X66589818Y-37617424D01*
X66650743Y-37511898D01*
X66749334Y-37260695D01*
X66809383Y-36997603D01*
X66829549Y-36728500D01*
X66809383Y-36459397D01*
X66749334Y-36196305D01*
X66650743Y-35945102D01*
X66515815Y-35711398D01*
X66515814Y-35711397D01*
X66513852Y-35707998D01*
X66461066Y-35576142D01*
X66447565Y-35434755D01*
X66474445Y-35295291D01*
X66513852Y-35209002D01*
X66589818Y-35077424D01*
X66650743Y-34971898D01*
X66749334Y-34720695D01*
X66809383Y-34457603D01*
X66829549Y-34188500D01*
X66809383Y-33919397D01*
X66749334Y-33656305D01*
X66650743Y-33405102D01*
X66515815Y-33171398D01*
X66515814Y-33171397D01*
X66513852Y-33167998D01*
X66461066Y-33036142D01*
X66447565Y-32894755D01*
X66474445Y-32755291D01*
X66513852Y-32669002D01*
X66650740Y-32431903D01*
X66650743Y-32431898D01*
X66749334Y-32180695D01*
X66809383Y-31917603D01*
X66829549Y-31648500D01*
X66829548Y-31648497D01*
X66830944Y-31629881D01*
X66833492Y-31630071D01*
X66849762Y-31516915D01*
X66908763Y-31387720D01*
X67001773Y-31280381D01*
X67121257Y-31203594D01*
X67257534Y-31163579D01*
X67328549Y-31158500D01*
X80499451Y-31158500D01*
X80640036Y-31178713D01*
X80769231Y-31237714D01*
X80876570Y-31330724D01*
X80953357Y-31450208D01*
X80993372Y-31586485D01*
X80996478Y-31629924D01*
X80997056Y-31629881D01*
X80998451Y-31648498D01*
X80998451Y-31648500D01*
X81018617Y-31917603D01*
X81018618Y-31917607D01*
X81078667Y-32180700D01*
X81177255Y-32431895D01*
X81177259Y-32431903D01*
X81314147Y-32669003D01*
X81366934Y-32800860D01*
X81380434Y-32942247D01*
X81353553Y-33081710D01*
X81314147Y-33167997D01*
X81177259Y-33405096D01*
X81177255Y-33405104D01*
X81078667Y-33656299D01*
X81018618Y-33919392D01*
X81018617Y-33919397D01*
X80998451Y-34188500D01*
X81018617Y-34457603D01*
X81018618Y-34457607D01*
X81078667Y-34720700D01*
X81177255Y-34971895D01*
X81177259Y-34971903D01*
X81314147Y-35209003D01*
X81366934Y-35340860D01*
X81380434Y-35482247D01*
X81353553Y-35621710D01*
X81314147Y-35707997D01*
X81177259Y-35945096D01*
X81177255Y-35945104D01*
X81078667Y-36196299D01*
X81018618Y-36459392D01*
X81018617Y-36459397D01*
X80998451Y-36728500D01*
X81018617Y-36997603D01*
X81018618Y-36997607D01*
X81078667Y-37260700D01*
X81177255Y-37511895D01*
X81177259Y-37511903D01*
X81314147Y-37749003D01*
X81366934Y-37880860D01*
X81380434Y-38022247D01*
X81353553Y-38161710D01*
X81314147Y-38247997D01*
X81177259Y-38485096D01*
X81177255Y-38485104D01*
X81078667Y-38736299D01*
X81018618Y-38999392D01*
X81018617Y-38999397D01*
X80998451Y-39268500D01*
X81018617Y-39537603D01*
X81018618Y-39537607D01*
X81078667Y-39800700D01*
X81177255Y-40051895D01*
X81177256Y-40051897D01*
X81203244Y-40096909D01*
X81256030Y-40228765D01*
X81269531Y-40370152D01*
X81242651Y-40509616D01*
X81177568Y-40635857D01*
X81099556Y-40717673D01*
X81039373Y-40895849D01*
X81039370Y-40895859D01*
X81019052Y-40984878D01*
X81010270Y-41027613D01*
X81010269Y-41027615D01*
X80994094Y-41230322D01*
X80995227Y-41239483D01*
X80999000Y-41300733D01*
X80999000Y-41685396D01*
X80998489Y-41707971D01*
X80998049Y-41717685D01*
X80998971Y-41802531D01*
X80999000Y-41807953D01*
X80999000Y-42348966D01*
X80997419Y-42388656D01*
X80994093Y-42430329D01*
X81019054Y-42632132D01*
X81019055Y-42632134D01*
X81039378Y-42721173D01*
X81050001Y-42763465D01*
X81107026Y-42910855D01*
X81119292Y-42919921D01*
X81205099Y-43033101D01*
X81255543Y-43165871D01*
X81266538Y-43307475D01*
X81237194Y-43446441D01*
X81200755Y-43524399D01*
X81177259Y-43565096D01*
X81177255Y-43565104D01*
X81078667Y-43816299D01*
X81078666Y-43816305D01*
X81018617Y-44079397D01*
X80998451Y-44348500D01*
X81018617Y-44617603D01*
X81018618Y-44617607D01*
X81078667Y-44880700D01*
X81177255Y-45131895D01*
X81177259Y-45131903D01*
X81314147Y-45369003D01*
X81366934Y-45500860D01*
X81380434Y-45642247D01*
X81353553Y-45781710D01*
X81314147Y-45867997D01*
X81177259Y-46105096D01*
X81177255Y-46105104D01*
X81078667Y-46356299D01*
X81056344Y-46454105D01*
X81018617Y-46619397D01*
X80998451Y-46888500D01*
X81018617Y-47157603D01*
X81018618Y-47157607D01*
X81078667Y-47420700D01*
X81177255Y-47671895D01*
X81177259Y-47671903D01*
X81314147Y-47909003D01*
X81366934Y-48040860D01*
X81380434Y-48182247D01*
X81353553Y-48321710D01*
X81314147Y-48407997D01*
X81177259Y-48645096D01*
X81177255Y-48645104D01*
X81078667Y-48896299D01*
X81035214Y-49086680D01*
X81018617Y-49159397D01*
X80998451Y-49428500D01*
X81018617Y-49697603D01*
X81018618Y-49697607D01*
X81078667Y-49960700D01*
X81177255Y-50211895D01*
X81177259Y-50211903D01*
X81314147Y-50449003D01*
X81366934Y-50580860D01*
X81380434Y-50722247D01*
X81353553Y-50861710D01*
X81314147Y-50947997D01*
X81177259Y-51185096D01*
X81177255Y-51185104D01*
X81078667Y-51436299D01*
X81023125Y-51679645D01*
X81018617Y-51699397D01*
X80998451Y-51968500D01*
X81018617Y-52237603D01*
X81018618Y-52237607D01*
X81078667Y-52500700D01*
X81177255Y-52751895D01*
X81177256Y-52751897D01*
X81184975Y-52765266D01*
X81237762Y-52897123D01*
X81251262Y-53038510D01*
X81224382Y-53177973D01*
X81183765Y-53266347D01*
X81103990Y-53402992D01*
X81038883Y-53595745D01*
X81038879Y-53595760D01*
X81018570Y-53684737D01*
X81009779Y-53727514D01*
X81009777Y-53727527D01*
X80993594Y-53930332D01*
X80994726Y-53939483D01*
X80998500Y-54000740D01*
X80998500Y-54385396D01*
X80997989Y-54407972D01*
X80997551Y-54417642D01*
X80997551Y-54417646D01*
X80997823Y-54442674D01*
X80998471Y-54502332D01*
X80998500Y-54507752D01*
X80998500Y-55048977D01*
X80996919Y-55088667D01*
X80993593Y-55130340D01*
X81018566Y-55332242D01*
X81038889Y-55421282D01*
X81049517Y-55463589D01*
X81049524Y-55463610D01*
X81122928Y-55653331D01*
X81122929Y-55653334D01*
X81122932Y-55653340D01*
X81135710Y-55673195D01*
X81173021Y-55731168D01*
X81232107Y-55860325D01*
X81252412Y-56000896D01*
X81232291Y-56141494D01*
X81185563Y-56250715D01*
X81177257Y-56265101D01*
X81177255Y-56265104D01*
X81078667Y-56516299D01*
X81078666Y-56516305D01*
X81018617Y-56779397D01*
X80998451Y-57048500D01*
X81018617Y-57317603D01*
X81018618Y-57317607D01*
X81078667Y-57580700D01*
X81177255Y-57831895D01*
X81177259Y-57831903D01*
X81314147Y-58069003D01*
X81366934Y-58200860D01*
X81380434Y-58342247D01*
X81353553Y-58481710D01*
X81314147Y-58567997D01*
X81177259Y-58805096D01*
X81177255Y-58805104D01*
X81078667Y-59056299D01*
X81018618Y-59319392D01*
X81018617Y-59319397D01*
X80998451Y-59588500D01*
X81018617Y-59857603D01*
X81018618Y-59857607D01*
X81078667Y-60120700D01*
X81177255Y-60371895D01*
X81177259Y-60371903D01*
X81314147Y-60609003D01*
X81366934Y-60740860D01*
X81380434Y-60882247D01*
X81353553Y-61021710D01*
X81314147Y-61107997D01*
X81177259Y-61345096D01*
X81177255Y-61345104D01*
X81078667Y-61596299D01*
X81054468Y-61702322D01*
X81018617Y-61859397D01*
X80998451Y-62128500D01*
X81018617Y-62397603D01*
X81018618Y-62397607D01*
X81078667Y-62660700D01*
X81177255Y-62911895D01*
X81177259Y-62911903D01*
X81314147Y-63149003D01*
X81366934Y-63280860D01*
X81380434Y-63422247D01*
X81353553Y-63561710D01*
X81314147Y-63647997D01*
X81177259Y-63885096D01*
X81177255Y-63885104D01*
X81078667Y-64136299D01*
X81018618Y-64399392D01*
X81018617Y-64399397D01*
X80998451Y-64668500D01*
X81018617Y-64937603D01*
X81018618Y-64937607D01*
X81078667Y-65200700D01*
X81177255Y-65451895D01*
X81177256Y-65451897D01*
X81203244Y-65496909D01*
X81256030Y-65628765D01*
X81269531Y-65770152D01*
X81242651Y-65909616D01*
X81177568Y-66035857D01*
X81099556Y-66117673D01*
X81039373Y-66295849D01*
X81039370Y-66295859D01*
X81019052Y-66384878D01*
X81010270Y-66427613D01*
X81010269Y-66427615D01*
X80994094Y-66630322D01*
X80995227Y-66639483D01*
X80999000Y-66700733D01*
X80999000Y-67085396D01*
X80998489Y-67107971D01*
X80998049Y-67117685D01*
X80998971Y-67202531D01*
X80999000Y-67207953D01*
X80999000Y-67748966D01*
X80997419Y-67788656D01*
X80994093Y-67830329D01*
X81019054Y-68032132D01*
X81019055Y-68032134D01*
X81039378Y-68121173D01*
X81050001Y-68163465D01*
X81107026Y-68310855D01*
X81119292Y-68319921D01*
X81205099Y-68433101D01*
X81255543Y-68565871D01*
X81266538Y-68707475D01*
X81237194Y-68846441D01*
X81200755Y-68924399D01*
X81177259Y-68965096D01*
X81177255Y-68965104D01*
X81078667Y-69216299D01*
X81048129Y-69350096D01*
X81018617Y-69479397D01*
X80998451Y-69748500D01*
X81018617Y-70017603D01*
X81018618Y-70017607D01*
X81078667Y-70280700D01*
X81177255Y-70531895D01*
X81177259Y-70531903D01*
X81314147Y-70769003D01*
X81366934Y-70900860D01*
X81380434Y-71042247D01*
X81353553Y-71181710D01*
X81314147Y-71267997D01*
X81177259Y-71505096D01*
X81177255Y-71505104D01*
X81078667Y-71756299D01*
X81078666Y-71756305D01*
X81018617Y-72019397D01*
X80998451Y-72288500D01*
X81018617Y-72557603D01*
X81018618Y-72557607D01*
X81078667Y-72820700D01*
X81177255Y-73071895D01*
X81177256Y-73071897D01*
X81312180Y-73305594D01*
X81312191Y-73305610D01*
X81480436Y-73516582D01*
X81480438Y-73516584D01*
X81480439Y-73516585D01*
X81678259Y-73700135D01*
X81901226Y-73852151D01*
X82144359Y-73969238D01*
X82402228Y-74048780D01*
X82669071Y-74089000D01*
X82669075Y-74089000D01*
X82938925Y-74089000D01*
X82938929Y-74089000D01*
X83205772Y-74048780D01*
X83463641Y-73969238D01*
X83706775Y-73852151D01*
X83929741Y-73700135D01*
X84127561Y-73516585D01*
X84295815Y-73305602D01*
X84430743Y-73071898D01*
X84529334Y-72820695D01*
X84589383Y-72557603D01*
X84609549Y-72288500D01*
X84589383Y-72019397D01*
X84529334Y-71756305D01*
X84437350Y-71521937D01*
X84430744Y-71505104D01*
X84430743Y-71505102D01*
X84293852Y-71267998D01*
X84241066Y-71136142D01*
X84227565Y-70994755D01*
X84254445Y-70855291D01*
X84293852Y-70769002D01*
X84324582Y-70715776D01*
X84430743Y-70531898D01*
X84529334Y-70280695D01*
X84589383Y-70017603D01*
X84609549Y-69748500D01*
X84589383Y-69479397D01*
X84529334Y-69216305D01*
X84473604Y-69074310D01*
X84430744Y-68965104D01*
X84430740Y-68965096D01*
X84295269Y-68730450D01*
X84242482Y-68598594D01*
X84228982Y-68457207D01*
X84255863Y-68317743D01*
X84302054Y-68220056D01*
X84391701Y-68073896D01*
X84477941Y-67889728D01*
X84537474Y-67719588D01*
X84544462Y-67698900D01*
X84587558Y-67500165D01*
X84607742Y-67321032D01*
X84609950Y-67299315D01*
X84609950Y-67299309D01*
X84607742Y-67095965D01*
X84607742Y-67095962D01*
X84587557Y-66916819D01*
X84584879Y-66895177D01*
X84584878Y-66895172D01*
X84537482Y-66697433D01*
X84477937Y-66527264D01*
X84470507Y-66506746D01*
X84289564Y-66141226D01*
X84245309Y-66006267D01*
X84240870Y-65864306D01*
X84276605Y-65726845D01*
X84304622Y-65670348D01*
X84430741Y-65451901D01*
X84430744Y-65451895D01*
X84529332Y-65200700D01*
X84529331Y-65200700D01*
X84529334Y-65200695D01*
X84589383Y-64937603D01*
X84609549Y-64668500D01*
X84589383Y-64399397D01*
X84529958Y-64139038D01*
X84518381Y-63997480D01*
X84547155Y-63858395D01*
X84613948Y-63733051D01*
X84713348Y-63631601D01*
X84837305Y-63562265D01*
X84975774Y-63530660D01*
X85016447Y-63529000D01*
X113254652Y-63529000D01*
X113254676Y-63529001D01*
X113275278Y-63529001D01*
X113495721Y-63529001D01*
X113495722Y-63529001D01*
X113713451Y-63494515D01*
X113923106Y-63426395D01*
X114119522Y-63326315D01*
X114178715Y-63283309D01*
X114297865Y-63196742D01*
X114297869Y-63196737D01*
X114297872Y-63196736D01*
X114482176Y-63012431D01*
X114482187Y-63012417D01*
X116183917Y-61310687D01*
X116183931Y-61310676D01*
X116368235Y-61126372D01*
X116368242Y-61126365D01*
X116497815Y-60948022D01*
X116597895Y-60751606D01*
X116666015Y-60541951D01*
X116666017Y-60541939D01*
X116666737Y-60537398D01*
X116700501Y-60324223D01*
X116700501Y-60086084D01*
X116700500Y-60086054D01*
X116700500Y-49677781D01*
X116694689Y-49641093D01*
X116666015Y-49460049D01*
X116597895Y-49250394D01*
X116597894Y-49250393D01*
X116597894Y-49250391D01*
X116497817Y-49053982D01*
X116497815Y-49053978D01*
X116368242Y-48875635D01*
X116368237Y-48875630D01*
X116368235Y-48875627D01*
X116212366Y-48719759D01*
X112965653Y-45473046D01*
X112880537Y-45359345D01*
X112830903Y-45226270D01*
X112819499Y-45120200D01*
X112819499Y-44527790D01*
X112819498Y-44527771D01*
X112809096Y-44395593D01*
X112809096Y-44395588D01*
X112754096Y-44177317D01*
X112707551Y-44074845D01*
X112661008Y-43972375D01*
X112532820Y-43787347D01*
X112532812Y-43787338D01*
X112373661Y-43628187D01*
X112373652Y-43628179D01*
X112188624Y-43499991D01*
X112051997Y-43437933D01*
X111983683Y-43406904D01*
X111765412Y-43351904D01*
X111633217Y-43341500D01*
X111633215Y-43341500D01*
X109814790Y-43341500D01*
X109814771Y-43341501D01*
X109682593Y-43351903D01*
X109682588Y-43351904D01*
X109464316Y-43406904D01*
X109259375Y-43499991D01*
X109074347Y-43628179D01*
X109074338Y-43628187D01*
X108915187Y-43787338D01*
X108915179Y-43787347D01*
X108786991Y-43972375D01*
X108699110Y-44165854D01*
X108693904Y-44177317D01*
X108638904Y-44395588D01*
X108638904Y-44395593D01*
X108628500Y-44527784D01*
X108628500Y-44527785D01*
X108628501Y-45852500D01*
X108608288Y-45993084D01*
X108549287Y-46122279D01*
X108456277Y-46229619D01*
X108336793Y-46306406D01*
X108200516Y-46346421D01*
X108129501Y-46351500D01*
X102972474Y-46351500D01*
X102831889Y-46331287D01*
X102724207Y-46282110D01*
X102722809Y-46284534D01*
X102706641Y-46275199D01*
X102706634Y-46275195D01*
X102586857Y-46217513D01*
X102477009Y-46164613D01*
X102477006Y-46164612D01*
X102477004Y-46164611D01*
X102233458Y-46089487D01*
X102233454Y-46089486D01*
X102233455Y-46089486D01*
X102127371Y-46073496D01*
X101981435Y-46051500D01*
X101726565Y-46051500D01*
X101580628Y-46073496D01*
X101474545Y-46089486D01*
X101230990Y-46164613D01*
X101051578Y-46251014D01*
X101001366Y-46275195D01*
X100882400Y-46356305D01*
X100790776Y-46418773D01*
X100790775Y-46418774D01*
X100603953Y-46592119D01*
X100445041Y-46791387D01*
X100445036Y-46791395D01*
X100317608Y-47012108D01*
X100317606Y-47012114D01*
X100224493Y-47249359D01*
X100185387Y-47420695D01*
X100167778Y-47497843D01*
X100148732Y-47752000D01*
X100167778Y-48006157D01*
X100207969Y-48182247D01*
X100224493Y-48254640D01*
X100317606Y-48491885D01*
X100317608Y-48491891D01*
X100445036Y-48712604D01*
X100445041Y-48712612D01*
X100603950Y-48911877D01*
X100603952Y-48911879D01*
X100603953Y-48911880D01*
X100790775Y-49085225D01*
X100790776Y-49085226D01*
X100790778Y-49085227D01*
X100790783Y-49085232D01*
X101001366Y-49228805D01*
X101230996Y-49339389D01*
X101474542Y-49414513D01*
X101726565Y-49452500D01*
X101726570Y-49452500D01*
X101981430Y-49452500D01*
X101981435Y-49452500D01*
X102233458Y-49414513D01*
X102477004Y-49339389D01*
X102706634Y-49228805D01*
X102706650Y-49228793D01*
X102722809Y-49219466D01*
X102724768Y-49222860D01*
X102818737Y-49176773D01*
X102958711Y-49152690D01*
X102972474Y-49152500D01*
X104380201Y-49152500D01*
X104520786Y-49172713D01*
X104649981Y-49231714D01*
X104757320Y-49324724D01*
X104834107Y-49444208D01*
X104874122Y-49580485D01*
X104874122Y-49722515D01*
X104834107Y-49858792D01*
X104757320Y-49978276D01*
X104733056Y-50004337D01*
X103960044Y-50777349D01*
X103846348Y-50862462D01*
X103713272Y-50912096D01*
X103607202Y-50923500D01*
X102972474Y-50923500D01*
X102831889Y-50903287D01*
X102724207Y-50854110D01*
X102722809Y-50856534D01*
X102706641Y-50847199D01*
X102706634Y-50847195D01*
X102561591Y-50777346D01*
X102477009Y-50736613D01*
X102477006Y-50736612D01*
X102477004Y-50736611D01*
X102233458Y-50661487D01*
X102233454Y-50661486D01*
X102233455Y-50661486D01*
X102127371Y-50645496D01*
X101981435Y-50623500D01*
X101726565Y-50623500D01*
X101580628Y-50645496D01*
X101474545Y-50661486D01*
X101230990Y-50736613D01*
X101065848Y-50816142D01*
X101001366Y-50847195D01*
X100791910Y-50990000D01*
X100790776Y-50990773D01*
X100790775Y-50990774D01*
X100603953Y-51164119D01*
X100445041Y-51363387D01*
X100445036Y-51363395D01*
X100317608Y-51584108D01*
X100317606Y-51584114D01*
X100224493Y-51821359D01*
X100224492Y-51821362D01*
X100224492Y-51821363D01*
X100167778Y-52069843D01*
X100148732Y-52324000D01*
X100167778Y-52578157D01*
X100210484Y-52765266D01*
X100224493Y-52826640D01*
X100317606Y-53063885D01*
X100317608Y-53063891D01*
X100444624Y-53283890D01*
X100445041Y-53284612D01*
X100603950Y-53483877D01*
X100603952Y-53483879D01*
X100603953Y-53483880D01*
X100790775Y-53657225D01*
X100790776Y-53657226D01*
X100790778Y-53657227D01*
X100790783Y-53657232D01*
X101001366Y-53800805D01*
X101230996Y-53911389D01*
X101474542Y-53986513D01*
X101726565Y-54024500D01*
X101726570Y-54024500D01*
X101981430Y-54024500D01*
X101981435Y-54024500D01*
X102233458Y-53986513D01*
X102477004Y-53911389D01*
X102706634Y-53800805D01*
X102706650Y-53800793D01*
X102722809Y-53791466D01*
X102724768Y-53794860D01*
X102818737Y-53748773D01*
X102958711Y-53724690D01*
X102972474Y-53724500D01*
X104263152Y-53724500D01*
X104263176Y-53724501D01*
X104283778Y-53724501D01*
X104504221Y-53724501D01*
X104504222Y-53724501D01*
X104721951Y-53690015D01*
X104931606Y-53621895D01*
X105065777Y-53553531D01*
X105128022Y-53521815D01*
X105205531Y-53465502D01*
X105205532Y-53465501D01*
X105306365Y-53392242D01*
X105306369Y-53392237D01*
X105306372Y-53392236D01*
X105490672Y-53207935D01*
X105490682Y-53207922D01*
X106859955Y-51838650D01*
X106973653Y-51753538D01*
X107106728Y-51703904D01*
X107212798Y-51692500D01*
X108217535Y-51692500D01*
X108358120Y-51712713D01*
X108487315Y-51771714D01*
X108594654Y-51864724D01*
X108671441Y-51984208D01*
X108711456Y-52120485D01*
X108711456Y-52262515D01*
X108699532Y-52320648D01*
X108694636Y-52338922D01*
X108660504Y-52466303D01*
X108628500Y-52709401D01*
X108628500Y-52740202D01*
X108608287Y-52880787D01*
X108549286Y-53009982D01*
X108482346Y-53093048D01*
X105972048Y-55603346D01*
X105858347Y-55688462D01*
X105725272Y-55738096D01*
X105619202Y-55749500D01*
X102972474Y-55749500D01*
X102831889Y-55729287D01*
X102724207Y-55680110D01*
X102722809Y-55682534D01*
X102706641Y-55673199D01*
X102706634Y-55673195D01*
X102560711Y-55602922D01*
X102477009Y-55562613D01*
X102477006Y-55562612D01*
X102477004Y-55562611D01*
X102233458Y-55487487D01*
X102233454Y-55487486D01*
X102233455Y-55487486D01*
X102127371Y-55471496D01*
X101981435Y-55449500D01*
X101726565Y-55449500D01*
X101580628Y-55471496D01*
X101474545Y-55487486D01*
X101474542Y-55487487D01*
X101286777Y-55545405D01*
X101230990Y-55562613D01*
X101001368Y-55673194D01*
X101001366Y-55673195D01*
X100790776Y-55816773D01*
X100790775Y-55816774D01*
X100603953Y-55990119D01*
X100445041Y-56189387D01*
X100445036Y-56189395D01*
X100317608Y-56410108D01*
X100317606Y-56410114D01*
X100224493Y-56647359D01*
X100224492Y-56647362D01*
X100224492Y-56647363D01*
X100167778Y-56895843D01*
X100148732Y-57150000D01*
X100167778Y-57404157D01*
X100167779Y-57404161D01*
X100224493Y-57652640D01*
X100317606Y-57889885D01*
X100317608Y-57889891D01*
X100421018Y-58069003D01*
X100445041Y-58110612D01*
X100603950Y-58309877D01*
X100603952Y-58309879D01*
X100603953Y-58309880D01*
X100790775Y-58483225D01*
X100790776Y-58483226D01*
X100790778Y-58483227D01*
X100790783Y-58483232D01*
X101001366Y-58626805D01*
X101230996Y-58737389D01*
X101474542Y-58812513D01*
X101726565Y-58850500D01*
X101726570Y-58850500D01*
X101981430Y-58850500D01*
X101981435Y-58850500D01*
X102233458Y-58812513D01*
X102477004Y-58737389D01*
X102706634Y-58626805D01*
X102706650Y-58626793D01*
X102722809Y-58617466D01*
X102724768Y-58620860D01*
X102818737Y-58574773D01*
X102958711Y-58550690D01*
X102972474Y-58550500D01*
X106275152Y-58550500D01*
X106275176Y-58550501D01*
X106295778Y-58550501D01*
X106516221Y-58550501D01*
X106516222Y-58550501D01*
X106733951Y-58516015D01*
X106943606Y-58447895D01*
X107140022Y-58347815D01*
X107203951Y-58301368D01*
X107318365Y-58218242D01*
X107474242Y-58062365D01*
X107502676Y-58033931D01*
X107502687Y-58033917D01*
X110687952Y-54848654D01*
X110801653Y-54763538D01*
X110934728Y-54713904D01*
X111040798Y-54702500D01*
X111071598Y-54702500D01*
X111071599Y-54702500D01*
X111314699Y-54670495D01*
X111551542Y-54607033D01*
X111778076Y-54513200D01*
X111787513Y-54507752D01*
X111837437Y-54478927D01*
X111990424Y-54390601D01*
X112184952Y-54241333D01*
X112358333Y-54067952D01*
X112507601Y-53873424D01*
X112595927Y-53720437D01*
X112630195Y-53661085D01*
X112630195Y-53661083D01*
X112630200Y-53661076D01*
X112724033Y-53434542D01*
X112787495Y-53197699D01*
X112819500Y-52954599D01*
X112819500Y-52709401D01*
X112787495Y-52466301D01*
X112724033Y-52229458D01*
X112630200Y-52002924D01*
X112619394Y-51984208D01*
X112519682Y-51811501D01*
X112466894Y-51679645D01*
X112453393Y-51538258D01*
X112480272Y-51398794D01*
X112519682Y-51312499D01*
X112630197Y-51121081D01*
X112630196Y-51121081D01*
X112630200Y-51121076D01*
X112724033Y-50894542D01*
X112787495Y-50657699D01*
X112818476Y-50422371D01*
X112856866Y-50285630D01*
X112932225Y-50165241D01*
X113038450Y-50070960D01*
X113166934Y-50010425D01*
X113307268Y-49988540D01*
X113448083Y-50007079D01*
X113577971Y-50064538D01*
X113666053Y-50134659D01*
X113753346Y-50221952D01*
X113838462Y-50335653D01*
X113888096Y-50468728D01*
X113899500Y-50574798D01*
X113899500Y-59427202D01*
X113879287Y-59567787D01*
X113820286Y-59696982D01*
X113753346Y-59780048D01*
X112951548Y-60581846D01*
X112837847Y-60666962D01*
X112704772Y-60716596D01*
X112598702Y-60728000D01*
X85016447Y-60728000D01*
X84875862Y-60707787D01*
X84746667Y-60648786D01*
X84639328Y-60555776D01*
X84562541Y-60436292D01*
X84522526Y-60300015D01*
X84522526Y-60157985D01*
X84529958Y-60117962D01*
X84568516Y-59949026D01*
X84589383Y-59857603D01*
X84609549Y-59588500D01*
X84589383Y-59319397D01*
X84529958Y-59059038D01*
X84518381Y-58917480D01*
X84547155Y-58778395D01*
X84613948Y-58653051D01*
X84713348Y-58551601D01*
X84837305Y-58482265D01*
X84975774Y-58450660D01*
X85016447Y-58449000D01*
X92966653Y-58449000D01*
X93107238Y-58469213D01*
X93236433Y-58528214D01*
X93247740Y-58535700D01*
X93381366Y-58626805D01*
X93610996Y-58737389D01*
X93854542Y-58812513D01*
X94106565Y-58850500D01*
X94106570Y-58850500D01*
X94361430Y-58850500D01*
X94361435Y-58850500D01*
X94613458Y-58812513D01*
X94857004Y-58737389D01*
X95086634Y-58626805D01*
X95297217Y-58483232D01*
X95484050Y-58309877D01*
X95642959Y-58110612D01*
X95770393Y-57889888D01*
X95863508Y-57652637D01*
X95920222Y-57404157D01*
X95939268Y-57150000D01*
X95920222Y-56895843D01*
X95863508Y-56647363D01*
X95770393Y-56410112D01*
X95696083Y-56281403D01*
X95642963Y-56189395D01*
X95642958Y-56189387D01*
X95638893Y-56184290D01*
X95484050Y-55990123D01*
X95484046Y-55990119D01*
X95297224Y-55816774D01*
X95297223Y-55816773D01*
X95297220Y-55816771D01*
X95297217Y-55816768D01*
X95086634Y-55673195D01*
X94940711Y-55602922D01*
X94857009Y-55562613D01*
X94857006Y-55562612D01*
X94857004Y-55562611D01*
X94613458Y-55487487D01*
X94613454Y-55487486D01*
X94613455Y-55487486D01*
X94507371Y-55471496D01*
X94361435Y-55449500D01*
X94106565Y-55449500D01*
X93960628Y-55471496D01*
X93854545Y-55487486D01*
X93854542Y-55487487D01*
X93666777Y-55545405D01*
X93610990Y-55562613D01*
X93536299Y-55598583D01*
X93400867Y-55641369D01*
X93319790Y-55648000D01*
X85020987Y-55648000D01*
X84880402Y-55627787D01*
X84751207Y-55568786D01*
X84643868Y-55475776D01*
X84567081Y-55356292D01*
X84527066Y-55220015D01*
X84527066Y-55077985D01*
X84542593Y-55012932D01*
X84541209Y-55012550D01*
X84544937Y-54999058D01*
X84577552Y-54848654D01*
X84588054Y-54800226D01*
X84608239Y-54621083D01*
X84610449Y-54599355D01*
X84608239Y-54395917D01*
X84598151Y-54306386D01*
X84588064Y-54216859D01*
X84588059Y-54216820D01*
X84588054Y-54216774D01*
X84585375Y-54195110D01*
X84564291Y-54107145D01*
X84535006Y-53984967D01*
X84537813Y-53984294D01*
X84521068Y-53868267D01*
X84541206Y-53727671D01*
X84600138Y-53598445D01*
X84693091Y-53491056D01*
X84812533Y-53414205D01*
X84948789Y-53374117D01*
X85020068Y-53369000D01*
X92664299Y-53369000D01*
X92804884Y-53389213D01*
X92934079Y-53448214D01*
X93003705Y-53502207D01*
X93170775Y-53657225D01*
X93170776Y-53657226D01*
X93170778Y-53657227D01*
X93170783Y-53657232D01*
X93381366Y-53800805D01*
X93610996Y-53911389D01*
X93854542Y-53986513D01*
X94106565Y-54024500D01*
X94106570Y-54024500D01*
X94361430Y-54024500D01*
X94361435Y-54024500D01*
X94613458Y-53986513D01*
X94857004Y-53911389D01*
X95086634Y-53800805D01*
X95297217Y-53657232D01*
X95484050Y-53483877D01*
X95642959Y-53284612D01*
X95770393Y-53063888D01*
X95863508Y-52826637D01*
X95920222Y-52578157D01*
X95939268Y-52324000D01*
X95920222Y-52069843D01*
X95863508Y-51821363D01*
X95770393Y-51584112D01*
X95743919Y-51538258D01*
X95642963Y-51363395D01*
X95642958Y-51363387D01*
X95623452Y-51338927D01*
X95484050Y-51164123D01*
X95437662Y-51121081D01*
X95297224Y-50990774D01*
X95297223Y-50990773D01*
X95297220Y-50990771D01*
X95297217Y-50990768D01*
X95086634Y-50847195D01*
X94941591Y-50777346D01*
X94857009Y-50736613D01*
X94857006Y-50736612D01*
X94857004Y-50736611D01*
X94613458Y-50661487D01*
X94613454Y-50661486D01*
X94613455Y-50661486D01*
X94507371Y-50645496D01*
X94361435Y-50623500D01*
X94361430Y-50623500D01*
X94350161Y-50623500D01*
X94225857Y-50605627D01*
X94225513Y-50607062D01*
X94210106Y-50603363D01*
X94209576Y-50603287D01*
X94208836Y-50603058D01*
X94206459Y-50602487D01*
X94206451Y-50602485D01*
X93988722Y-50567999D01*
X93768278Y-50567999D01*
X93747676Y-50567999D01*
X93747652Y-50568000D01*
X90539298Y-50568000D01*
X90398713Y-50547787D01*
X90269518Y-50488786D01*
X90162179Y-50395776D01*
X90085392Y-50276292D01*
X90045377Y-50140015D01*
X90045377Y-49997985D01*
X90085392Y-49861708D01*
X90162179Y-49742224D01*
X90186452Y-49716154D01*
X90603952Y-49298654D01*
X90717653Y-49213538D01*
X90850728Y-49163904D01*
X90956798Y-49152500D01*
X93115526Y-49152500D01*
X93256111Y-49172713D01*
X93363792Y-49221889D01*
X93365191Y-49219466D01*
X93381354Y-49228797D01*
X93381366Y-49228805D01*
X93610996Y-49339389D01*
X93854542Y-49414513D01*
X94106565Y-49452500D01*
X94106570Y-49452500D01*
X94361430Y-49452500D01*
X94361435Y-49452500D01*
X94613458Y-49414513D01*
X94857004Y-49339389D01*
X95086634Y-49228805D01*
X95297217Y-49085232D01*
X95484050Y-48911877D01*
X95642959Y-48712612D01*
X95770393Y-48491888D01*
X95863508Y-48254637D01*
X95920222Y-48006157D01*
X95939268Y-47752000D01*
X95920222Y-47497843D01*
X95863508Y-47249363D01*
X95770393Y-47012112D01*
X95642959Y-46791388D01*
X95484050Y-46592123D01*
X95484046Y-46592119D01*
X95297224Y-46418774D01*
X95297223Y-46418773D01*
X95297220Y-46418771D01*
X95297217Y-46418768D01*
X95086634Y-46275195D01*
X94966857Y-46217513D01*
X94857009Y-46164613D01*
X94857006Y-46164612D01*
X94857004Y-46164611D01*
X94613458Y-46089487D01*
X94613454Y-46089486D01*
X94613455Y-46089486D01*
X94507371Y-46073496D01*
X94361435Y-46051500D01*
X94106565Y-46051500D01*
X93960628Y-46073496D01*
X93854545Y-46089486D01*
X93610990Y-46164613D01*
X93381368Y-46275194D01*
X93365191Y-46284534D01*
X93363231Y-46281139D01*
X93269263Y-46327227D01*
X93129289Y-46351310D01*
X93115526Y-46351500D01*
X90300848Y-46351500D01*
X90300824Y-46351499D01*
X90280222Y-46351499D01*
X90059778Y-46351499D01*
X89950913Y-46368742D01*
X89842048Y-46385985D01*
X89632391Y-46454105D01*
X89435982Y-46554182D01*
X89257627Y-46683764D01*
X89101759Y-46839634D01*
X89101758Y-46839635D01*
X89101755Y-46839638D01*
X88520694Y-47420700D01*
X88059548Y-47881846D01*
X87945847Y-47966962D01*
X87812772Y-48016596D01*
X87706702Y-48028000D01*
X85016447Y-48028000D01*
X84875862Y-48007787D01*
X84746667Y-47948786D01*
X84639328Y-47855776D01*
X84562541Y-47736292D01*
X84522526Y-47600015D01*
X84522526Y-47457985D01*
X84529958Y-47417962D01*
X84568440Y-47249359D01*
X84589383Y-47157603D01*
X84609549Y-46888500D01*
X84589383Y-46619397D01*
X84529334Y-46356305D01*
X84527448Y-46351500D01*
X84430744Y-46105104D01*
X84430743Y-46105102D01*
X84293852Y-45867998D01*
X84241066Y-45736142D01*
X84227565Y-45594755D01*
X84254445Y-45455291D01*
X84293852Y-45369002D01*
X84318163Y-45326893D01*
X84430743Y-45131898D01*
X84529334Y-44880695D01*
X84589383Y-44617603D01*
X84609549Y-44348500D01*
X84589383Y-44079397D01*
X84529334Y-43816305D01*
X84517968Y-43787346D01*
X84430744Y-43565104D01*
X84430740Y-43565096D01*
X84295269Y-43330450D01*
X84242482Y-43198594D01*
X84228982Y-43057207D01*
X84255863Y-42917743D01*
X84302054Y-42820056D01*
X84391701Y-42673896D01*
X84477941Y-42489728D01*
X84537474Y-42319588D01*
X84544462Y-42298900D01*
X84587558Y-42100165D01*
X84607742Y-41921032D01*
X84609950Y-41899315D01*
X84609950Y-41899309D01*
X84607742Y-41695965D01*
X84607742Y-41695962D01*
X84587557Y-41516819D01*
X84584879Y-41495177D01*
X84584878Y-41495172D01*
X84537482Y-41297433D01*
X84477937Y-41127264D01*
X84470507Y-41106746D01*
X84289564Y-40741226D01*
X84245309Y-40606267D01*
X84240870Y-40464306D01*
X84276605Y-40326845D01*
X84304622Y-40270348D01*
X84430741Y-40051901D01*
X84430744Y-40051895D01*
X84529332Y-39800700D01*
X84529331Y-39800700D01*
X84529334Y-39800695D01*
X84589383Y-39537603D01*
X84609549Y-39268500D01*
X84589383Y-38999397D01*
X84529958Y-38739038D01*
X84518381Y-38597480D01*
X84547155Y-38458395D01*
X84613948Y-38333051D01*
X84713348Y-38231601D01*
X84837305Y-38162265D01*
X84975774Y-38130660D01*
X85016447Y-38129000D01*
X109314168Y-38129000D01*
X109454753Y-38149213D01*
X109563669Y-38195854D01*
X109669918Y-38257197D01*
X109669920Y-38257198D01*
X109669924Y-38257200D01*
X109896458Y-38351033D01*
X110133301Y-38414495D01*
X110376401Y-38446500D01*
X110376402Y-38446500D01*
X111071598Y-38446500D01*
X111071599Y-38446500D01*
X111314699Y-38414495D01*
X111551542Y-38351033D01*
X111778076Y-38257200D01*
X111788126Y-38251398D01*
X111837437Y-38222927D01*
X111990424Y-38134601D01*
X112184952Y-37985333D01*
X112358333Y-37811952D01*
X112507601Y-37617424D01*
X112630200Y-37405076D01*
X112724033Y-37178542D01*
X112787495Y-36941699D01*
X112819500Y-36698599D01*
X112819500Y-36453401D01*
X112787495Y-36210301D01*
X112724033Y-35973458D01*
X112630200Y-35746924D01*
X112519681Y-35555500D01*
X112466894Y-35423645D01*
X112453393Y-35282258D01*
X112480272Y-35142794D01*
X112519682Y-35056499D01*
X112630197Y-34865081D01*
X112630196Y-34865081D01*
X112630200Y-34865076D01*
X112724033Y-34638542D01*
X112787495Y-34401699D01*
X112819500Y-34158599D01*
X112819500Y-33913401D01*
X112787495Y-33670301D01*
X112724033Y-33433458D01*
X112630200Y-33206924D01*
X112630198Y-33206921D01*
X112623948Y-33191831D01*
X112627159Y-33190500D01*
X112593008Y-33085705D01*
X112588828Y-32943736D01*
X112624815Y-32806340D01*
X112650628Y-32753917D01*
X112661008Y-32735624D01*
X112691268Y-32669003D01*
X112754096Y-32530683D01*
X112809096Y-32312412D01*
X112819500Y-32180217D01*
X112819499Y-30811784D01*
X112809096Y-30679588D01*
X112754096Y-30461317D01*
X112707551Y-30358845D01*
X112661008Y-30256375D01*
X112532820Y-30071347D01*
X112532812Y-30071338D01*
X112373661Y-29912187D01*
X112373652Y-29912179D01*
X112188624Y-29783991D01*
X112051997Y-29721933D01*
X111983683Y-29690904D01*
X111765412Y-29635904D01*
X111633217Y-29625500D01*
X111633215Y-29625500D01*
X109814790Y-29625500D01*
X109814771Y-29625501D01*
X109682593Y-29635903D01*
X109682588Y-29635904D01*
X109464316Y-29690904D01*
X109259375Y-29783991D01*
X109074347Y-29912179D01*
X109074338Y-29912187D01*
X108899334Y-30087192D01*
X108898158Y-30086016D01*
X108811696Y-30163762D01*
X108683606Y-30225125D01*
X108543416Y-30247916D01*
X108534254Y-30248000D01*
X85020460Y-30248000D01*
X84879875Y-30227787D01*
X84750680Y-30168786D01*
X84643341Y-30075776D01*
X84566554Y-29956292D01*
X84526539Y-29820015D01*
X84526539Y-29677985D01*
X84542100Y-29612776D01*
X84540733Y-29612398D01*
X84544459Y-29598914D01*
X84587558Y-29400165D01*
X84607742Y-29221032D01*
X84609950Y-29199315D01*
X84609950Y-29199309D01*
X84607742Y-28995965D01*
X84607742Y-28995962D01*
X84587557Y-28816819D01*
X84584879Y-28795177D01*
X84584878Y-28795172D01*
X84537482Y-28597433D01*
X84477937Y-28427264D01*
X84470507Y-28406746D01*
X84289564Y-28041226D01*
X84245309Y-27906267D01*
X84240870Y-27764306D01*
X84276605Y-27626845D01*
X84304622Y-27570348D01*
X84430741Y-27351901D01*
X84430744Y-27351895D01*
X84496181Y-27185167D01*
X84529334Y-27100695D01*
X84579244Y-26882023D01*
X84630232Y-26749465D01*
X84712882Y-26640222D01*
X85973917Y-25379187D01*
X85973931Y-25379176D01*
X86158235Y-25194872D01*
X86158242Y-25194865D01*
X86287815Y-25016522D01*
X86387895Y-24820106D01*
X86456015Y-24610451D01*
X86490500Y-24392722D01*
X86490500Y-20704848D01*
X86490501Y-20704823D01*
X86490501Y-20463779D01*
X86456015Y-20246049D01*
X86393953Y-20055040D01*
X86389684Y-20039905D01*
X86287817Y-19839982D01*
X86287815Y-19839978D01*
X86158242Y-19661635D01*
X86158237Y-19661630D01*
X86158235Y-19661627D01*
X85989844Y-19493237D01*
X85989835Y-19493229D01*
X85159678Y-18663072D01*
X85159658Y-18663050D01*
X84986372Y-18489764D01*
X84986373Y-18489764D01*
X84937843Y-18454505D01*
X84808022Y-18360185D01*
X84808019Y-18360183D01*
X84808017Y-18360182D01*
X84611610Y-18260106D01*
X84401951Y-18191985D01*
X84401945Y-18191984D01*
X84401004Y-18191835D01*
X84401003Y-18191834D01*
X84184222Y-18157499D01*
X83963778Y-18157499D01*
X83943176Y-18157499D01*
X83943152Y-18157500D01*
X47895778Y-18157500D01*
X47802271Y-18172309D01*
X47678050Y-18191984D01*
X47468391Y-18260105D01*
X47271982Y-18360182D01*
X47093627Y-18489764D01*
X46937759Y-18645634D01*
X45823634Y-19759759D01*
X45667764Y-19915627D01*
X45538182Y-20093982D01*
X45438105Y-20290391D01*
X45369985Y-20500048D01*
X45335499Y-20717779D01*
X45335499Y-20958823D01*
X45335500Y-20958848D01*
X45335500Y-23489054D01*
X45335499Y-23489084D01*
X45335499Y-23506778D01*
X45335499Y-23727222D01*
X45340594Y-23759389D01*
X45356684Y-23860974D01*
X45369985Y-23944952D01*
X45438105Y-24154608D01*
X45547085Y-24368490D01*
X45544663Y-24369723D01*
X45589069Y-24472733D01*
X45606272Y-24613718D01*
X45583058Y-24753838D01*
X45521307Y-24881742D01*
X45426023Y-24987068D01*
X45304925Y-25061283D01*
X45167824Y-25098374D01*
X45025826Y-25095338D01*
X44890436Y-25052418D01*
X44812205Y-25001357D01*
X44810507Y-25003696D01*
X44787621Y-24987068D01*
X44635405Y-24876476D01*
X44635401Y-24876474D01*
X44635400Y-24876473D01*
X44460030Y-24787118D01*
X44460029Y-24787117D01*
X44460026Y-24787116D01*
X44460021Y-24787114D01*
X44460013Y-24787111D01*
X44272832Y-24726292D01*
X44272825Y-24726290D01*
X44078418Y-24695500D01*
X44078417Y-24695500D01*
X31346115Y-24695500D01*
X31205530Y-24675287D01*
X31076335Y-24616286D01*
X30968996Y-24523276D01*
X30930207Y-24466292D01*
X30927788Y-24467887D01*
X30913860Y-24446754D01*
X30785275Y-24289056D01*
X30785273Y-24289054D01*
X30627575Y-24160469D01*
X30627572Y-24160467D01*
X30447222Y-24066260D01*
X30447219Y-24066258D01*
X30447214Y-24066256D01*
X30251583Y-24010279D01*
X30132202Y-23999665D01*
X30132194Y-23999665D01*
X28416134Y-23999665D01*
X28296747Y-24010279D01*
X28101118Y-24066255D01*
X28101107Y-24066260D01*
X27920757Y-24160467D01*
X27920754Y-24160469D01*
X27763056Y-24289054D01*
X27763054Y-24289056D01*
X27634469Y-24446754D01*
X27634467Y-24446757D01*
X27540260Y-24627107D01*
X27540255Y-24627118D01*
X27485034Y-24820108D01*
X27484279Y-24822747D01*
X27473665Y-24942128D01*
X27473665Y-24942135D01*
X27473665Y-24945477D01*
X27473449Y-24946974D01*
X27473174Y-24953186D01*
X27472560Y-24953158D01*
X27453452Y-25086062D01*
X27394451Y-25215257D01*
X27301441Y-25322596D01*
X27181957Y-25399383D01*
X27045680Y-25439398D01*
X26903650Y-25439398D01*
X26854298Y-25428311D01*
X26854133Y-25429038D01*
X26835942Y-25424885D01*
X26687690Y-25402540D01*
X26569094Y-25384665D01*
X26299236Y-25384665D01*
X26175623Y-25403296D01*
X26032395Y-25424884D01*
X25913009Y-25461710D01*
X25774524Y-25504427D01*
X25774520Y-25504428D01*
X25774514Y-25504431D01*
X25531398Y-25621510D01*
X25531387Y-25621516D01*
X25308422Y-25773531D01*
X25110601Y-25957082D01*
X24942356Y-26168054D01*
X24942345Y-26168070D01*
X24807421Y-26401767D01*
X24807420Y-26401769D01*
X24708832Y-26652964D01*
X24684918Y-26757738D01*
X24648782Y-26916062D01*
X24647811Y-26929026D01*
X24628616Y-27185167D01*
X24643234Y-27380245D01*
X24633582Y-27521947D01*
X24584400Y-27655189D01*
X24499671Y-27769179D01*
X24498476Y-27770378D01*
X23684173Y-28584683D01*
X23568477Y-28743925D01*
X23568476Y-28743925D01*
X23479115Y-28919306D01*
X23424658Y-29086902D01*
X23424659Y-29086903D01*
X23418292Y-29106497D01*
X23418289Y-29106511D01*
X23387500Y-29300908D01*
X23387500Y-36166417D01*
X23418290Y-36360825D01*
X23418292Y-36360832D01*
X23479111Y-36548013D01*
X23479118Y-36548030D01*
X23555836Y-36698599D01*
X23568476Y-36723405D01*
X23684172Y-36882646D01*
X23684173Y-36882647D01*
X27380508Y-40578982D01*
X27465624Y-40692683D01*
X27515258Y-40825758D01*
X27525391Y-40967426D01*
X27495200Y-41106211D01*
X27427132Y-41230868D01*
X27326702Y-41331298D01*
X27301870Y-41348735D01*
X27179355Y-41429315D01*
X26911609Y-41653980D01*
X26671754Y-41908210D01*
X26463032Y-42188571D01*
X26463030Y-42188575D01*
X26288285Y-42491242D01*
X26288276Y-42491258D01*
X26149839Y-42812192D01*
X26149836Y-42812199D01*
X26049597Y-43147022D01*
X26049592Y-43147043D01*
X25988902Y-43491240D01*
X25968580Y-43840165D01*
X25988902Y-44189089D01*
X26049592Y-44533286D01*
X26049597Y-44533307D01*
X26149836Y-44868130D01*
X26149839Y-44868137D01*
X26288276Y-45189071D01*
X26288285Y-45189087D01*
X26463030Y-45491754D01*
X26463032Y-45491758D01*
X26588593Y-45660415D01*
X26671753Y-45772118D01*
X26911607Y-46026348D01*
X27179354Y-46251014D01*
X27339441Y-46356305D01*
X27471372Y-46443078D01*
X27783699Y-46599935D01*
X27783706Y-46599938D01*
X27783714Y-46599942D01*
X28112154Y-46719484D01*
X28112158Y-46719485D01*
X28112161Y-46719486D01*
X28452241Y-46800086D01*
X28452244Y-46800086D01*
X28452251Y-46800088D01*
X28723195Y-46831757D01*
X28799404Y-46840665D01*
X28799406Y-46840665D01*
X29148926Y-46840665D01*
X29217596Y-46832638D01*
X29496079Y-46800088D01*
X29496086Y-46800086D01*
X29496088Y-46800086D01*
X29836168Y-46719486D01*
X29836168Y-46719485D01*
X29836176Y-46719484D01*
X30164616Y-46599942D01*
X30476958Y-46443078D01*
X30768976Y-46251014D01*
X31036723Y-46026348D01*
X31276577Y-45772118D01*
X31485295Y-45491761D01*
X31561745Y-45359345D01*
X31660044Y-45189087D01*
X31660053Y-45189071D01*
X31684715Y-45131898D01*
X31798491Y-44868136D01*
X31898734Y-44533301D01*
X31959427Y-44189092D01*
X31979750Y-43840165D01*
X31959427Y-43491238D01*
X31934859Y-43351903D01*
X31898737Y-43147043D01*
X31898732Y-43147022D01*
X31794327Y-42798284D01*
X31796669Y-42797582D01*
X31772306Y-42681171D01*
X31783556Y-42539587D01*
X31834238Y-42406907D01*
X31920248Y-42293881D01*
X32034617Y-42209665D01*
X32168080Y-42161082D01*
X32270300Y-42150500D01*
X47554079Y-42150500D01*
X47694664Y-42170713D01*
X47823859Y-42229714D01*
X47931198Y-42322724D01*
X48007985Y-42442208D01*
X48021617Y-42475118D01*
X48038774Y-42521118D01*
X48068965Y-42659903D01*
X48058832Y-42801571D01*
X48009197Y-42934646D01*
X47924082Y-43048347D01*
X47810380Y-43133462D01*
X47677305Y-43183097D01*
X47571236Y-43194500D01*
X42952913Y-43194500D01*
X42758505Y-43225290D01*
X42758498Y-43225292D01*
X42571317Y-43286111D01*
X42571300Y-43286118D01*
X42395930Y-43375473D01*
X42395926Y-43375475D01*
X42395926Y-43375476D01*
X42352668Y-43406905D01*
X42236685Y-43491172D01*
X42236683Y-43491173D01*
X29724509Y-56003346D01*
X29610808Y-56088462D01*
X29477733Y-56138096D01*
X29371664Y-56149500D01*
X28416134Y-56149500D01*
X28296747Y-56160114D01*
X28101118Y-56216090D01*
X28101105Y-56216095D01*
X28080777Y-56226714D01*
X27946809Y-56273886D01*
X27804978Y-56281403D01*
X27676724Y-56251015D01*
X27676673Y-56251174D01*
X27674733Y-56250543D01*
X27666774Y-56248658D01*
X27658802Y-56245436D01*
X27658033Y-56245117D01*
X27470832Y-56184292D01*
X27470825Y-56184290D01*
X27276418Y-56153500D01*
X27276417Y-56153500D01*
X26006416Y-56153500D01*
X25809583Y-56153500D01*
X25615174Y-56184290D01*
X25575121Y-56197304D01*
X25554348Y-56204054D01*
X25554345Y-56204054D01*
X25427977Y-56245114D01*
X25295256Y-56312739D01*
X25252598Y-56334473D01*
X25093354Y-56450172D01*
X25093352Y-56450173D01*
X22546173Y-58997352D01*
X22546172Y-58997354D01*
X22430477Y-59156594D01*
X22430473Y-59156599D01*
X22341118Y-59331969D01*
X22341114Y-59331977D01*
X22313994Y-59415445D01*
X22296136Y-59470408D01*
X22296135Y-59470412D01*
X22280291Y-59519172D01*
X22249500Y-59713582D01*
X20888500Y-59713582D01*
X20888500Y-50990000D01*
X25968580Y-50990000D01*
X25988902Y-51338924D01*
X26049592Y-51683121D01*
X26049597Y-51683142D01*
X26149836Y-52017965D01*
X26149839Y-52017972D01*
X26288276Y-52338906D01*
X26288285Y-52338922D01*
X26463030Y-52641589D01*
X26463032Y-52641593D01*
X26545154Y-52751901D01*
X26671753Y-52921953D01*
X26911607Y-53176183D01*
X27179354Y-53400849D01*
X27305596Y-53483880D01*
X27471372Y-53592913D01*
X27783699Y-53749770D01*
X27783706Y-53749773D01*
X27783714Y-53749777D01*
X28112154Y-53869319D01*
X28112158Y-53869320D01*
X28112161Y-53869321D01*
X28452241Y-53949921D01*
X28452244Y-53949921D01*
X28452251Y-53949923D01*
X28723195Y-53981592D01*
X28799404Y-53990500D01*
X28799406Y-53990500D01*
X29148926Y-53990500D01*
X29217596Y-53982473D01*
X29496079Y-53949923D01*
X29496086Y-53949921D01*
X29496088Y-53949921D01*
X29836168Y-53869321D01*
X29836168Y-53869320D01*
X29836176Y-53869319D01*
X30164616Y-53749777D01*
X30476958Y-53592913D01*
X30768976Y-53400849D01*
X31036723Y-53176183D01*
X31276577Y-52921953D01*
X31485295Y-52641596D01*
X31521919Y-52578161D01*
X31660044Y-52338922D01*
X31660053Y-52338906D01*
X31666483Y-52324000D01*
X31798491Y-52017971D01*
X31898734Y-51683136D01*
X31959427Y-51338927D01*
X31979750Y-50990000D01*
X31959427Y-50641073D01*
X31925560Y-50449002D01*
X31898737Y-50296878D01*
X31898732Y-50296857D01*
X31798493Y-49962034D01*
X31798490Y-49962027D01*
X31797915Y-49960695D01*
X31753959Y-49858792D01*
X31660053Y-49641093D01*
X31660044Y-49641077D01*
X31485299Y-49338410D01*
X31485297Y-49338406D01*
X31360959Y-49171392D01*
X31276577Y-49058047D01*
X31036723Y-48803817D01*
X30768976Y-48579151D01*
X30508335Y-48407724D01*
X30476957Y-48387086D01*
X30164630Y-48230229D01*
X30164616Y-48230223D01*
X29836176Y-48110681D01*
X29836168Y-48110678D01*
X29496088Y-48030078D01*
X29148926Y-47989500D01*
X29148924Y-47989500D01*
X28799406Y-47989500D01*
X28799404Y-47989500D01*
X28452241Y-48030078D01*
X28112161Y-48110678D01*
X28112153Y-48110681D01*
X27783713Y-48230223D01*
X27783699Y-48230229D01*
X27471372Y-48387086D01*
X27179356Y-48579149D01*
X26911609Y-48803815D01*
X26671754Y-49058045D01*
X26463032Y-49338406D01*
X26463030Y-49338410D01*
X26288285Y-49641077D01*
X26288276Y-49641093D01*
X26149839Y-49962027D01*
X26149836Y-49962034D01*
X26049597Y-50296857D01*
X26049592Y-50296878D01*
X25988902Y-50641075D01*
X25968580Y-50990000D01*
X20888500Y-50990000D01*
X20888500Y-18840165D01*
X25968580Y-18840165D01*
X25988902Y-19189089D01*
X26049592Y-19533286D01*
X26049597Y-19533307D01*
X26149836Y-19868130D01*
X26149839Y-19868137D01*
X26288276Y-20189071D01*
X26288285Y-20189087D01*
X26463030Y-20491754D01*
X26463032Y-20491758D01*
X26606317Y-20684222D01*
X26671753Y-20772118D01*
X26911607Y-21026348D01*
X27179354Y-21251014D01*
X27322280Y-21345018D01*
X27471372Y-21443078D01*
X27783699Y-21599935D01*
X27783706Y-21599938D01*
X27783714Y-21599942D01*
X28112154Y-21719484D01*
X28112158Y-21719485D01*
X28112161Y-21719486D01*
X28452241Y-21800086D01*
X28452244Y-21800086D01*
X28452251Y-21800088D01*
X28723195Y-21831757D01*
X28799404Y-21840665D01*
X28799406Y-21840665D01*
X29148926Y-21840665D01*
X29217596Y-21832638D01*
X29496079Y-21800088D01*
X29496086Y-21800086D01*
X29496088Y-21800086D01*
X29836168Y-21719486D01*
X29836168Y-21719485D01*
X29836176Y-21719484D01*
X30164616Y-21599942D01*
X30476958Y-21443078D01*
X30768976Y-21251014D01*
X31036723Y-21026348D01*
X31276577Y-20772118D01*
X31485295Y-20491761D01*
X31660054Y-20189069D01*
X31798491Y-19868136D01*
X31807928Y-19836616D01*
X31898732Y-19533307D01*
X31898734Y-19533301D01*
X31905799Y-19493237D01*
X31940388Y-19297069D01*
X31959427Y-19189092D01*
X31979750Y-18840165D01*
X31959427Y-18491238D01*
X31922156Y-18279862D01*
X31898737Y-18147043D01*
X31898732Y-18147022D01*
X31854717Y-18000000D01*
X35144709Y-18000000D01*
X35163852Y-18279866D01*
X35163853Y-18279867D01*
X35220923Y-18554505D01*
X35220927Y-18554518D01*
X35314859Y-18818817D01*
X35314864Y-18818830D01*
X35443919Y-19067896D01*
X35605688Y-19297069D01*
X35703762Y-19402081D01*
X35797155Y-19502081D01*
X36014752Y-19679110D01*
X36146993Y-19759527D01*
X36254432Y-19824862D01*
X36511725Y-19936620D01*
X36561263Y-19950500D01*
X36781837Y-20012303D01*
X37059742Y-20050500D01*
X37340258Y-20050500D01*
X37618162Y-20012303D01*
X37708199Y-19987075D01*
X37888275Y-19936620D01*
X38145568Y-19824862D01*
X38385246Y-19679111D01*
X38602845Y-19502081D01*
X38794312Y-19297069D01*
X38956081Y-19067896D01*
X39085136Y-18818830D01*
X39179075Y-18554511D01*
X39236148Y-18279862D01*
X39255291Y-18000000D01*
X39248451Y-17900000D01*
X111944709Y-17900000D01*
X111963852Y-18179866D01*
X111963853Y-18179867D01*
X112020923Y-18454505D01*
X112020927Y-18454518D01*
X112114859Y-18718817D01*
X112114864Y-18718830D01*
X112243919Y-18967896D01*
X112405688Y-19197069D01*
X112499081Y-19297069D01*
X112597155Y-19402081D01*
X112814752Y-19579110D01*
X112814754Y-19579111D01*
X113054432Y-19724862D01*
X113311725Y-19836620D01*
X113401763Y-19861847D01*
X113581837Y-19912303D01*
X113859742Y-19950500D01*
X114140258Y-19950500D01*
X114418162Y-19912303D01*
X114575790Y-19868137D01*
X114688275Y-19836620D01*
X114945568Y-19724862D01*
X115185246Y-19579111D01*
X115402845Y-19402081D01*
X115594312Y-19197069D01*
X115756081Y-18967896D01*
X115885136Y-18718830D01*
X115979075Y-18454511D01*
X116036148Y-18179862D01*
X116055291Y-17900000D01*
X116036148Y-17620138D01*
X115979075Y-17345489D01*
X115885136Y-17081170D01*
X115756081Y-16832104D01*
X115594312Y-16602931D01*
X115402845Y-16397919D01*
X115402844Y-16397918D01*
X115185247Y-16220889D01*
X114945570Y-16075139D01*
X114945568Y-16075138D01*
X114845332Y-16031599D01*
X114688283Y-15963383D01*
X114688273Y-15963379D01*
X114418162Y-15887696D01*
X114140258Y-15849500D01*
X113859742Y-15849500D01*
X113581837Y-15887696D01*
X113311726Y-15963379D01*
X113311716Y-15963383D01*
X113054434Y-16075137D01*
X113054429Y-16075139D01*
X112814752Y-16220889D01*
X112597155Y-16397918D01*
X112405684Y-16602935D01*
X112243922Y-16832099D01*
X112114865Y-17081167D01*
X112114859Y-17081182D01*
X112020927Y-17345481D01*
X112020923Y-17345494D01*
X111963853Y-17620132D01*
X111963852Y-17620133D01*
X111944709Y-17900000D01*
X39248451Y-17900000D01*
X39236148Y-17720138D01*
X39179075Y-17445489D01*
X39085136Y-17181170D01*
X38956081Y-16932104D01*
X38794312Y-16702931D01*
X38602845Y-16497919D01*
X38518521Y-16429316D01*
X38385247Y-16320889D01*
X38145570Y-16175139D01*
X38145568Y-16175138D01*
X38045332Y-16131599D01*
X37888283Y-16063383D01*
X37888273Y-16063379D01*
X37618162Y-15987696D01*
X37340258Y-15949500D01*
X37059742Y-15949500D01*
X36781837Y-15987696D01*
X36511726Y-16063379D01*
X36511716Y-16063383D01*
X36254434Y-16175137D01*
X36254429Y-16175139D01*
X36014752Y-16320889D01*
X35797155Y-16497918D01*
X35605684Y-16702935D01*
X35443922Y-16932099D01*
X35314865Y-17181167D01*
X35314859Y-17181182D01*
X35220927Y-17445481D01*
X35220923Y-17445494D01*
X35163853Y-17720132D01*
X35163852Y-17720133D01*
X35144709Y-18000000D01*
X31854717Y-18000000D01*
X31798493Y-17812199D01*
X31798490Y-17812192D01*
X31660053Y-17491258D01*
X31660044Y-17491242D01*
X31485299Y-17188575D01*
X31485297Y-17188571D01*
X31294360Y-16932099D01*
X31276577Y-16908212D01*
X31036723Y-16653982D01*
X30768976Y-16429316D01*
X30721238Y-16397918D01*
X30476957Y-16237251D01*
X30164630Y-16080394D01*
X30164616Y-16080388D01*
X29836176Y-15960846D01*
X29836168Y-15960843D01*
X29496088Y-15880243D01*
X29148926Y-15839665D01*
X29148924Y-15839665D01*
X28799406Y-15839665D01*
X28799404Y-15839665D01*
X28452241Y-15880243D01*
X28112161Y-15960843D01*
X28112153Y-15960846D01*
X27783713Y-16080388D01*
X27783699Y-16080394D01*
X27471372Y-16237251D01*
X27179356Y-16429314D01*
X26911609Y-16653980D01*
X26671754Y-16908210D01*
X26463032Y-17188571D01*
X26463030Y-17188575D01*
X26288285Y-17491242D01*
X26288276Y-17491258D01*
X26149839Y-17812192D01*
X26149836Y-17812199D01*
X26049597Y-18147022D01*
X26049592Y-18147043D01*
X25988902Y-18491240D01*
X25968580Y-18840165D01*
X20888500Y-18840165D01*
X20888500Y-14453500D01*
X20908713Y-14312915D01*
X20967714Y-14183720D01*
X21060724Y-14076381D01*
X21180208Y-13999594D01*
X21316485Y-13959579D01*
X21387500Y-13954500D01*
X117412500Y-13954500D01*
X117553085Y-13974713D01*
G37*
%TD.AperFunction*%
%TD*%
M02*
